NotoSansMeroitic-Regular.ufo
<glyph name="colon" format="2">
  <advance width="321"/>
  <unicode hex="003A"/>
  <outline>
    <contour>
      <point x="126" y="481" type="curve" smooth="yes"/>
      <point x="126" y="446"/>
      <point x="147" y="431"/>
      <point x="175" y="431" type="curve" smooth="yes"/>
      <point x="207" y="431"/>
      <point x="238" y="451"/>
      <point x="238" y="502" type="curve" smooth="yes"/>
      <point x="238" y="540"/>
      <point x="214" y="553"/>
      <point x="187" y="553" type="curve" smooth="yes"/>
      <point x="145" y="553"/>
      <point x="126" y="517"/>
    </contour>
    <contour>
      <point x="83" y="158" type="curve" smooth="yes"/>
      <point x="83" y="123"/>
      <point x="104" y="108"/>
      <point x="132" y="108" type="curve" smooth="yes"/>
      <point x="164" y="108"/>
      <point x="195" y="128"/>
      <point x="195" y="179" type="curve" smooth="yes"/>
      <point x="195" y="217"/>
      <point x="171" y="230"/>
      <point x="144" y="230" type="curve" smooth="yes"/>
      <point x="102" y="230"/>
      <point x="83" y="194"/>
    </contour>
  </outline>
</glyph>
<glyph name="ellipsis" format="2">
  <advance width="963"/>
  <unicode hex="2026"/>
  <outline>
    <contour>
      <point x="73" y="40" type="curve" smooth="yes"/>
      <point x="73" y="5"/>
      <point x="94" y="-10"/>
      <point x="122" y="-10" type="curve" smooth="yes"/>
      <point x="154" y="-10"/>
      <point x="185" y="10"/>
      <point x="185" y="61" type="curve" smooth="yes"/>
      <point x="185" y="99"/>
      <point x="161" y="112"/>
      <point x="134" y="112" type="curve" smooth="yes"/>
      <point x="92" y="112"/>
      <point x="73" y="76"/>
    </contour>
    <contour>
      <point x="394" y="40" type="curve" smooth="yes"/>
      <point x="394" y="5"/>
      <point x="415" y="-10"/>
      <point x="443" y="-10" type="curve" smooth="yes"/>
      <point x="475" y="-10"/>
      <point x="506" y="10"/>
      <point x="506" y="61" type="curve" smooth="yes"/>
      <point x="506" y="99"/>
      <point x="482" y="112"/>
      <point x="455" y="112" type="curve" smooth="yes"/>
      <point x="413" y="112"/>
      <point x="394" y="76"/>
    </contour>
    <contour>
      <point x="715" y="40" type="curve" smooth="yes"/>
      <point x="715" y="5"/>
      <point x="736" y="-10"/>
      <point x="764" y="-10" type="curve" smooth="yes"/>
      <point x="796" y="-10"/>
      <point x="827" y="10"/>
      <point x="827" y="61" type="curve" smooth="yes"/>
      <point x="827" y="99"/>
      <point x="803" y="112"/>
      <point x="776" y="112" type="curve" smooth="yes"/>
      <point x="734" y="112"/>
      <point x="715" y="76"/>
    </contour>
  </outline>
</glyph>
<glyph name="tricolon" format="2">
  <advance width="321"/>
  <unicode hex="205D"/>
  <outline>
    <contour>
      <point x="79" y="128" type="curve" smooth="yes"/>
      <point x="79" y="93"/>
      <point x="100" y="78"/>
      <point x="128" y="78" type="curve" smooth="yes"/>
      <point x="160" y="78"/>
      <point x="191" y="98"/>
      <point x="191" y="149" type="curve" smooth="yes"/>
      <point x="191" y="187"/>
      <point x="167" y="200"/>
      <point x="140" y="200" type="curve" smooth="yes"/>
      <point x="98" y="200"/>
      <point x="79" y="164"/>
    </contour>
    <contour>
      <point x="108" y="343" type="curve" smooth="yes"/>
      <point x="108" y="308"/>
      <point x="129" y="293"/>
      <point x="157" y="293" type="curve" smooth="yes"/>
      <point x="189" y="293"/>
      <point x="220" y="313"/>
      <point x="220" y="364" type="curve" smooth="yes"/>
      <point x="220" y="402"/>
      <point x="196" y="415"/>
      <point x="169" y="415" type="curve" smooth="yes"/>
      <point x="127" y="415"/>
      <point x="108" y="379"/>
    </contour>
    <contour>
      <point x="136" y="558" type="curve" smooth="yes"/>
      <point x="136" y="523"/>
      <point x="157" y="508"/>
      <point x="185" y="508" type="curve" smooth="yes"/>
      <point x="217" y="508"/>
      <point x="248" y="528"/>
      <point x="248" y="579" type="curve" smooth="yes"/>
      <point x="248" y="617"/>
      <point x="224" y="630"/>
      <point x="197" y="630" type="curve" smooth="yes"/>
      <point x="155" y="630"/>
      <point x="136" y="594"/>
    </contour>
  </outline>
</glyph>
<glyph name="u10983" format="2">
  <advance width="853"/>
  <unicode hex="10983"/>
  <outline>
    <contour>
      <point x="306" y="454" type="curve" smooth="yes"/>
      <point x="229" y="390"/>
      <point x="175" y="341"/>
      <point x="112" y="260" type="curve" smooth="yes"/>
      <point x="94" y="237"/>
      <point x="50" y="191"/>
      <point x="50" y="158" type="curve" smooth="yes"/>
      <point x="50" y="93"/>
      <point x="133" y="-14"/>
      <point x="182" y="-14" type="curve" smooth="yes"/>
      <point x="197" y="-14"/>
      <point x="217" y="-5"/>
      <point x="236" y="3" type="curve" smooth="yes"/>
      <point x="251" y="9"/>
      <point x="268" y="16"/>
      <point x="278" y="16" type="curve" smooth="yes"/>
      <point x="295" y="16"/>
      <point x="313" y="9"/>
      <point x="329" y="5" type="curve" smooth="yes"/>
      <point x="346" y="1"/>
      <point x="362" y="-4"/>
      <point x="384" y="-4" type="curve" smooth="yes"/>
      <point x="472" y="-4"/>
      <point x="634" y="128"/>
      <point x="634" y="235" type="curve" smooth="yes"/>
      <point x="634" y="257"/>
      <point x="629" y="280"/>
      <point x="624" y="302" type="curve" smooth="yes"/>
      <point x="620" y="320"/>
      <point x="617" y="337"/>
      <point x="617" y="354" type="curve" smooth="yes"/>
      <point x="617" y="377"/>
      <point x="647" y="383"/>
      <point x="708" y="400" type="curve" smooth="yes"/>
      <point x="752" y="412"/>
      <point x="797" y="441"/>
      <point x="803" y="468" type="curve"/>
      <point x="797" y="484"/>
      <point x="767" y="506"/>
      <point x="729" y="526" type="curve"/>
      <point x="774" y="557"/>
      <point x="801" y="606"/>
      <point x="801" y="680" type="curve" smooth="yes"/>
      <point x="801" y="729"/>
      <point x="777" y="786"/>
      <point x="728" y="836" type="curve" smooth="yes"/>
      <point x="721" y="844"/>
      <point x="710" y="849"/>
      <point x="705" y="849" type="curve" smooth="yes"/>
      <point x="691" y="849"/>
      <point x="674" y="842"/>
      <point x="674" y="826" type="curve" smooth="yes"/>
      <point x="674" y="817"/>
      <point x="680" y="811"/>
      <point x="684" y="806" type="curve" smooth="yes"/>
      <point x="717" y="773"/>
      <point x="741" y="731"/>
      <point x="741" y="680" type="curve" smooth="yes"/>
      <point x="741" y="562"/>
      <point x="653" y="536"/>
      <point x="519" y="536" type="curve" smooth="yes"/>
      <point x="380" y="536"/>
      <point x="292" y="562"/>
      <point x="292" y="680" type="curve" smooth="yes"/>
      <point x="292" y="731"/>
      <point x="316" y="773"/>
      <point x="349" y="806" type="curve" smooth="yes"/>
      <point x="353" y="811"/>
      <point x="359" y="817"/>
      <point x="359" y="826" type="curve" smooth="yes"/>
      <point x="359" y="842"/>
      <point x="342" y="849"/>
      <point x="328" y="849" type="curve" smooth="yes"/>
      <point x="323" y="849"/>
      <point x="312" y="844"/>
      <point x="305" y="836" type="curve" smooth="yes"/>
      <point x="256" y="786"/>
      <point x="232" y="729"/>
      <point x="232" y="680" type="curve" smooth="yes"/>
      <point x="232" y="581"/>
      <point x="280" y="526"/>
      <point x="356" y="500" type="curve"/>
      <point x="338" y="481"/>
      <point x="327" y="471"/>
    </contour>
    <contour>
      <point x="737" y="469" type="curve"/>
      <point x="717" y="449"/>
      <point x="694" y="441"/>
      <point x="662" y="433" type="curve" smooth="yes"/>
      <point x="615" y="421"/>
      <point x="559" y="404"/>
      <point x="559" y="371" type="curve" smooth="yes"/>
      <point x="559" y="350"/>
      <point x="564" y="330"/>
      <point x="567" y="309" type="curve" smooth="yes"/>
      <point x="570" y="290"/>
      <point x="573" y="270"/>
      <point x="573" y="251" type="curve" smooth="yes"/>
      <point x="573" y="147"/>
      <point x="450" y="56"/>
      <point x="389" y="56" type="curve" smooth="yes"/>
      <point x="367" y="56"/>
      <point x="354" y="61"/>
      <point x="338" y="65" type="curve" smooth="yes"/>
      <point x="323" y="69"/>
      <point x="307" y="75"/>
      <point x="284" y="75" type="curve" smooth="yes"/>
      <point x="269" y="75"/>
      <point x="253" y="67"/>
      <point x="236" y="59" type="curve" smooth="yes"/>
      <point x="221" y="52"/>
      <point x="205" y="44"/>
      <point x="194" y="44" type="curve" smooth="yes"/>
      <point x="165" y="44"/>
      <point x="110" y="119"/>
      <point x="110" y="159" type="curve" smooth="yes"/>
      <point x="110" y="176"/>
      <point x="145" y="219"/>
      <point x="158" y="236" type="curve" smooth="yes"/>
      <point x="194" y="281"/>
      <point x="253" y="347"/>
      <point x="335" y="410" type="curve" smooth="yes"/>
      <point x="360" y="429"/>
      <point x="391" y="461"/>
      <point x="413" y="485" type="curve"/>
      <point x="445" y="480"/>
      <point x="479" y="478"/>
      <point x="515" y="478" type="curve" smooth="yes"/>
      <point x="578" y="478"/>
      <point x="632" y="484"/>
      <point x="677" y="500" type="curve"/>
      <point x="707" y="488"/>
      <point x="731" y="474"/>
    </contour>
    <contour>
      <point x="338" y="352" type="curve" smooth="yes"/>
      <point x="338" y="331"/>
      <point x="354" y="315"/>
      <point x="375" y="315" type="curve" smooth="yes"/>
      <point x="397" y="315"/>
      <point x="414" y="331"/>
      <point x="414" y="352" type="curve" smooth="yes"/>
      <point x="414" y="374"/>
      <point x="397" y="391"/>
      <point x="375" y="391" type="curve" smooth="yes"/>
      <point x="354" y="391"/>
      <point x="338" y="374"/>
    </contour>
  </outline>
</glyph>
<glyph name="u10984" format="2">
  <advance width="710"/>
  <unicode hex="10984"/>
  <outline>
    <contour>
      <point x="240" y="152" type="line"/>
      <point x="240" y="12" type="line" smooth="yes"/>
      <point x="240" y="-4"/>
      <point x="255" y="-12"/>
      <point x="270" y="-12" type="curve" smooth="yes"/>
      <point x="285" y="-12"/>
      <point x="300" y="-4"/>
      <point x="300" y="12" type="curve" smooth="yes"/>
      <point x="300" y="514" type="line" smooth="yes"/>
      <point x="300" y="690"/>
      <point x="290" y="830"/>
      <point x="203" y="830" type="curve" smooth="yes"/>
      <point x="152" y="830"/>
      <point x="131" y="767"/>
      <point x="116" y="682" type="curve" smooth="yes"/>
      <point x="51" y="306" type="line" smooth="yes"/>
      <point x="50" y="301"/>
      <point x="49" y="294"/>
      <point x="49" y="290" type="curve" smooth="yes"/>
      <point x="49" y="259"/>
      <point x="77" y="242"/>
      <point x="111" y="223" type="curve" smooth="yes"/>
    </contour>
    <contour>
      <point x="113" y="312" type="curve" smooth="yes"/>
      <point x="113" y="317"/>
      <point x="114" y="327"/>
      <point x="115" y="334" type="curve" smooth="yes"/>
      <point x="170" y="661" type="line" smooth="yes"/>
      <point x="181" y="724"/>
      <point x="187" y="760"/>
      <point x="203" y="760" type="curve" smooth="yes"/>
      <point x="237" y="760"/>
      <point x="240" y="678"/>
      <point x="240" y="514" type="curve" smooth="yes"/>
      <point x="240" y="227" type="line"/>
      <point x="135" y="283" type="line" smooth="yes"/>
      <point x="116" y="293"/>
      <point x="113" y="302"/>
    </contour>
    <contour>
      <point x="550" y="152" type="line"/>
      <point x="550" y="12" type="line" smooth="yes"/>
      <point x="550" y="-4"/>
      <point x="565" y="-12"/>
      <point x="580" y="-12" type="curve" smooth="yes"/>
      <point x="595" y="-12"/>
      <point x="610" y="-4"/>
      <point x="610" y="12" type="curve" smooth="yes"/>
      <point x="610" y="514" type="line" smooth="yes"/>
      <point x="610" y="690"/>
      <point x="600" y="830"/>
      <point x="513" y="830" type="curve" smooth="yes"/>
      <point x="462" y="830"/>
      <point x="441" y="767"/>
      <point x="426" y="682" type="curve" smooth="yes"/>
      <point x="361" y="306" type="line" smooth="yes"/>
      <point x="360" y="301"/>
      <point x="359" y="294"/>
      <point x="359" y="290" type="curve" smooth="yes"/>
      <point x="359" y="259"/>
      <point x="387" y="242"/>
      <point x="421" y="223" type="curve" smooth="yes"/>
    </contour>
    <contour>
      <point x="423" y="312" type="curve" smooth="yes"/>
      <point x="423" y="317"/>
      <point x="424" y="327"/>
      <point x="425" y="334" type="curve" smooth="yes"/>
      <point x="480" y="661" type="line" smooth="yes"/>
      <point x="491" y="724"/>
      <point x="497" y="760"/>
      <point x="513" y="760" type="curve" smooth="yes"/>
      <point x="547" y="760"/>
      <point x="550" y="678"/>
      <point x="550" y="514" type="curve" smooth="yes"/>
      <point x="550" y="227" type="line"/>
      <point x="445" y="283" type="line" smooth="yes"/>
      <point x="426" y="293"/>
      <point x="423" y="302"/>
    </contour>
  </outline>
</glyph>
<glyph name="u10986" format="2">
  <advance width="1147"/>
  <unicode hex="10986"/>
  <outline>
    <contour>
      <point x="510" y="656" type="curve"/>
      <point x="507" y="715" type="line"/>
      <point x="490" y="710"/>
      <point x="473" y="707"/>
      <point x="455" y="707" type="curve" smooth="yes"/>
      <point x="430" y="707"/>
      <point x="412" y="717"/>
      <point x="395" y="727" type="curve" smooth="yes"/>
      <point x="376" y="738"/>
      <point x="359" y="751"/>
      <point x="333" y="751" type="curve" smooth="yes"/>
      <point x="313" y="751"/>
      <point x="295" y="732"/>
      <point x="280" y="701" type="curve"/>
      <point x="265" y="732"/>
      <point x="247" y="751"/>
      <point x="227" y="751" type="curve" smooth="yes"/>
      <point x="201" y="751"/>
      <point x="184" y="739"/>
      <point x="165" y="727" type="curve" smooth="yes"/>
      <point x="149" y="717"/>
      <point x="131" y="707"/>
      <point x="105" y="707" type="curve" smooth="yes"/>
      <point x="87" y="707"/>
      <point x="70" y="710"/>
      <point x="53" y="715" type="curve"/>
      <point x="50" y="656" type="line"/>
      <point x="68" y="651"/>
      <point x="90" y="647"/>
      <point x="111" y="647" type="curve" smooth="yes"/>
      <point x="138" y="647"/>
      <point x="155" y="657"/>
      <point x="170" y="667" type="curve" smooth="yes"/>
      <point x="186" y="678"/>
      <point x="200" y="688"/>
      <point x="223" y="688" type="curve" smooth="yes"/>
      <point x="234" y="688"/>
      <point x="243" y="679"/>
      <point x="251" y="668" type="curve"/>
      <point x="232" y="654"/>
      <point x="205" y="640"/>
      <point x="177" y="625" type="curve" smooth="yes"/>
      <point x="141" y="605"/>
      <point x="104" y="585"/>
      <point x="87" y="565" type="curve"/>
      <point x="90" y="520"/>
      <point x="116" y="435"/>
      <point x="146" y="435" type="curve" smooth="yes"/>
      <point x="160" y="435"/>
      <point x="183" y="441"/>
      <point x="204" y="447" type="curve" smooth="yes"/>
      <point x="220" y="452"/>
      <point x="235" y="456"/>
      <point x="240" y="457" type="curve"/>
      <point x="256" y="305" type="line" smooth="yes"/>
      <point x="262" y="249"/>
      <point x="277" y="226"/>
      <point x="316" y="215" type="curve"/>
      <point x="236" y="58" type="line"/>
      <point x="188" y="58" type="line" smooth="yes"/>
      <point x="167" y="58"/>
      <point x="159" y="47"/>
      <point x="159" y="27" type="curve" smooth="yes"/>
      <point x="159" y="18"/>
      <point x="171" y="0"/>
      <point x="188" y="0" type="curve" smooth="yes"/>
      <point x="260" y="0" type="line" smooth="yes"/>
      <point x="275" y="0"/>
      <point x="284" y="36"/>
      <point x="294" y="55" type="curve" smooth="yes"/>
      <point x="371" y="207" type="line"/>
      <point x="375" y="206"/>
      <point x="379" y="206"/>
      <point x="383" y="206" type="curve"/>
      <point x="402" y="164"/>
      <point x="422" y="123"/>
      <point x="422" y="89" type="curve" smooth="yes"/>
      <point x="422" y="71"/>
      <point x="418" y="61"/>
      <point x="406" y="59" type="curve" smooth="yes"/>
      <point x="375" y="55" type="line" smooth="yes"/>
      <point x="357" y="53"/>
      <point x="348" y="38"/>
      <point x="348" y="24" type="curve" smooth="yes"/>
      <point x="348" y="9"/>
      <point x="355" y="0"/>
      <point x="369" y="0" type="curve" smooth="yes"/>
      <point x="398" y="0"/>
      <point x="416" y="1"/>
      <point x="434" y="4" type="curve" smooth="yes"/>
      <point x="459" y="8"/>
      <point x="483" y="45"/>
      <point x="483" y="75" type="curve" smooth="yes"/>
      <point x="483" y="118"/>
      <point x="464" y="162"/>
      <point x="446" y="202" type="curve"/>
      <point x="498" y="199"/>
      <point x="551" y="198"/>
      <point x="602" y="198" type="curve" smooth="yes"/>
      <point x="677" y="198"/>
      <point x="755" y="200"/>
      <point x="815" y="204" type="curve"/>
      <point x="736" y="58" type="line"/>
      <point x="691" y="58" type="line" smooth="yes"/>
      <point x="676" y="58"/>
      <point x="667" y="42"/>
      <point x="667" y="27" type="curve" smooth="yes"/>
      <point x="667" y="13"/>
      <point x="674" y="0"/>
      <point x="691" y="0" type="curve" smooth="yes"/>
      <point x="759" y="0" type="line" smooth="yes"/>
      <point x="774" y="0"/>
      <point x="782" y="20"/>
      <point x="800" y="55" type="curve" smooth="yes"/>
      <point x="869" y="191" type="line"/>
      <point x="886" y="168"/>
      <point x="904" y="150"/>
      <point x="920" y="138" type="curve" smooth="yes"/>
      <point x="953" y="114"/>
      <point x="982" y="104"/>
      <point x="982" y="91" type="curve" smooth="yes"/>
      <point x="982" y="80"/>
      <point x="976" y="62"/>
      <point x="964" y="61" type="curve" smooth="yes"/>
      <point x="923" y="57" type="line" smooth="yes"/>
      <point x="911" y="56"/>
      <point x="905" y="45"/>
      <point x="905" y="33" type="curve" smooth="yes"/>
      <point x="905" y="17"/>
      <point x="916" y="2"/>
      <point x="938" y="2" type="curve" smooth="yes"/>
      <point x="956" y="2"/>
      <point x="974" y="3"/>
      <point x="992" y="6" type="curve" smooth="yes"/>
      <point x="1017" y="10"/>
      <point x="1043" y="51"/>
      <point x="1043" y="85" type="curve" smooth="yes"/>
      <point x="1043" y="117"/>
      <point x="1011" y="131"/>
      <point x="973" y="160" type="curve" smooth="yes"/>
      <point x="954" y="174"/>
      <point x="935" y="191"/>
      <point x="917" y="216" type="curve"/>
      <point x="963" y="240"/>
      <point x="994" y="313"/>
      <point x="1028" y="435" type="curve"/>
      <point x="1037" y="418"/>
      <point x="1040" y="398"/>
      <point x="1040" y="376" type="curve" smooth="yes"/>
      <point x="1040" y="348"/>
      <point x="1035" y="317"/>
      <point x="1035" y="286" type="curve" smooth="yes"/>
      <point x="1035" y="271"/>
      <point x="1042" y="229"/>
      <point x="1057" y="229" type="curve" smooth="yes"/>
      <point x="1087" y="229"/>
      <point x="1097" y="269"/>
      <point x="1097" y="308" type="curve" smooth="yes"/>
      <point x="1097" y="339"/>
      <point x="1090" y="374"/>
      <point x="1075" y="392" type="curve"/>
      <point x="1073" y="425"/>
      <point x="1065" y="453"/>
      <point x="1033" y="480" type="curve"/>
      <point x="1028" y="516"/>
      <point x="995" y="551"/>
      <point x="957" y="551" type="curve" smooth="yes"/>
      <point x="868" y="551"/>
      <point x="775" y="546"/>
      <point x="694" y="546" type="curve" smooth="yes"/>
      <point x="568" y="546"/>
      <point x="468" y="567"/>
      <point x="377" y="637" type="curve" smooth="yes"/>
      <point x="358" y="651"/>
      <point x="340" y="668"/>
      <point x="319" y="681" type="curve"/>
      <point x="324" y="685"/>
      <point x="330" y="688"/>
      <point x="337" y="688" type="curve" smooth="yes"/>
      <point x="356" y="688"/>
      <point x="370" y="681"/>
      <point x="383" y="672" type="curve" smooth="yes"/>
      <point x="400" y="661"/>
      <point x="417" y="647"/>
      <point x="449" y="647" type="curve" smooth="yes"/>
      <point x="470" y="647"/>
      <point x="492" y="651"/>
    </contour>
    <contour>
      <point x="868" y="346" type="curve"/>
      <point x="811" y="335" type="line"/>
      <point x="816" y="308"/>
      <point x="823" y="285"/>
      <point x="830" y="264" type="curve"/>
      <point x="765" y="260"/>
      <point x="680" y="256"/>
      <point x="586" y="256" type="curve" smooth="yes"/>
      <point x="536" y="256"/>
      <point x="472" y="258"/>
      <point x="419" y="262" type="curve"/>
      <point x="413" y="280"/>
      <point x="409" y="298"/>
      <point x="409" y="316" type="curve" smooth="yes"/>
      <point x="409" y="343"/>
      <point x="413" y="369"/>
      <point x="459" y="408" type="curve"/>
      <point x="423" y="436" type="line"/>
      <point x="387" y="408"/>
      <point x="349" y="367"/>
      <point x="349" y="318" type="curve" smooth="yes"/>
      <point x="349" y="302"/>
      <point x="352" y="285"/>
      <point x="358" y="268" type="curve"/>
      <point x="328" y="274"/>
      <point x="320" y="280"/>
      <point x="315" y="329" type="curve" smooth="yes"/>
      <point x="298" y="494" type="line"/>
      <point x="283" y="523" type="line"/>
      <point x="272" y="523"/>
      <point x="249" y="516"/>
      <point x="228" y="508" type="curve" smooth="yes"/>
      <point x="204" y="499"/>
      <point x="180" y="491"/>
      <point x="170" y="491" type="curve" smooth="yes"/>
      <point x="162" y="491"/>
      <point x="147" y="525"/>
      <point x="144" y="550" type="curve"/>
      <point x="167" y="567"/>
      <point x="193" y="580"/>
      <point x="217" y="593" type="curve" smooth="yes"/>
      <point x="243" y="607"/>
      <point x="268" y="619"/>
      <point x="289" y="635" type="curve"/>
      <point x="317" y="631"/>
      <point x="339" y="590"/>
      <point x="358" y="577" type="curve" smooth="yes"/>
      <point x="462" y="508"/>
      <point x="565" y="488"/>
      <point x="680" y="488" type="curve" smooth="yes"/>
      <point x="756" y="488"/>
      <point x="859" y="490"/>
      <point x="931" y="490" type="curve" smooth="yes"/>
      <point x="960" y="490"/>
      <point x="972" y="484"/>
      <point x="972" y="460" type="curve" smooth="yes"/>
      <point x="972" y="430"/>
      <point x="928" y="287"/>
      <point x="889" y="269" type="curve"/>
      <point x="880" y="290"/>
      <point x="873" y="316"/>
    </contour>
  </outline>
</glyph>
<glyph name="u10987" format="2">
  <advance width="649"/>
  <unicode hex="10987"/>
  <outline>
    <contour>
      <point x="528" y="254" type="line"/>
      <point x="578" y="279" type="line" smooth="yes"/>
      <point x="593" y="286"/>
      <point x="599" y="298"/>
      <point x="599" y="308" type="curve" smooth="yes"/>
      <point x="599" y="322"/>
      <point x="589" y="334"/>
      <point x="576" y="335" type="curve" smooth="yes"/>
      <point x="572" y="335"/>
      <point x="566" y="333"/>
      <point x="559" y="330" type="curve" smooth="yes"/>
      <point x="528" y="314" type="line"/>
      <point x="528" y="809" type="line" smooth="yes"/>
      <point x="528" y="823"/>
      <point x="513" y="830"/>
      <point x="498" y="830" type="curve" smooth="yes"/>
      <point x="483" y="830"/>
      <point x="468" y="823"/>
      <point x="468" y="809" type="curve" smooth="yes"/>
      <point x="468" y="285" type="line"/>
      <point x="91" y="99" type="line" smooth="yes"/>
      <point x="53" y="80"/>
      <point x="50" y="55"/>
      <point x="50" y="46" type="curve" smooth="yes"/>
      <point x="50" y="31"/>
      <point x="60" y="0"/>
      <point x="89" y="0" type="curve" smooth="yes"/>
      <point x="462" y="0" type="line" smooth="yes"/>
      <point x="508" y="0"/>
      <point x="528" y="46"/>
      <point x="528" y="88" type="curve" smooth="yes"/>
    </contour>
    <contour>
      <point x="468" y="225" type="line"/>
      <point x="468" y="103" type="line" smooth="yes"/>
      <point x="468" y="63"/>
      <point x="460" y="58"/>
      <point x="435" y="58" type="curve" smooth="yes"/>
      <point x="157" y="58" type="line" smooth="yes"/>
      <point x="140" y="58"/>
      <point x="134" y="58"/>
      <point x="134" y="60" type="curve" smooth="yes"/>
      <point x="134" y="62"/>
      <point x="146" y="66"/>
      <point x="155" y="71" type="curve" smooth="yes"/>
    </contour>
  </outline>
</glyph>
<glyph name="u10989" format="2">
  <advance width="915"/>
  <unicode hex="10989"/>
  <outline>
    <contour>
      <point x="188" y="216" type="curve"/>
      <point x="187" y="194"/>
      <point x="183" y="158"/>
      <point x="183" y="143" type="curve" smooth="yes"/>
      <point x="183" y="129"/>
      <point x="192" y="116"/>
      <point x="206" y="104" type="curve"/>
      <point x="184" y="58" type="line"/>
      <point x="111" y="58" type="line" smooth="yes"/>
      <point x="96" y="58"/>
      <point x="88" y="43"/>
      <point x="88" y="28" type="curve" smooth="yes"/>
      <point x="88" y="14"/>
      <point x="95" y="0"/>
      <point x="111" y="0" type="curve" smooth="yes"/>
      <point x="195" y="0" type="line" smooth="yes"/>
      <point x="210" y="0"/>
      <point x="228" y="12"/>
      <point x="253" y="68" type="curve" smooth="yes"/>
      <point x="258" y="79" type="line"/>
      <point x="264" y="77"/>
      <point x="271" y="77"/>
      <point x="277" y="77" type="curve" smooth="yes"/>
      <point x="286" y="77"/>
      <point x="310" y="98"/>
      <point x="326" y="118" type="curve"/>
      <point x="339" y="96"/>
      <point x="346" y="80"/>
      <point x="384" y="74" type="curve"/>
      <point x="384" y="58" type="line"/>
      <point x="314" y="58" type="line" smooth="yes"/>
      <point x="296" y="58"/>
      <point x="287" y="43"/>
      <point x="287" y="28" type="curve" smooth="yes"/>
      <point x="287" y="14"/>
      <point x="295" y="0"/>
      <point x="309" y="0" type="curve" smooth="yes"/>
      <point x="416" y="0" type="line" smooth="yes"/>
      <point x="430" y="0"/>
      <point x="440" y="12"/>
      <point x="440" y="29" type="curve" smooth="yes"/>
      <point x="440" y="72" type="line"/>
      <point x="457" y="76"/>
      <point x="463" y="89"/>
      <point x="469" y="100" type="curve" smooth="yes"/>
      <point x="474" y="110"/>
      <point x="480" y="119"/>
      <point x="493" y="119" type="curve" smooth="yes"/>
      <point x="517" y="119"/>
      <point x="524" y="103"/>
      <point x="549" y="35" type="curve" smooth="yes"/>
      <point x="585" y="-62"/>
      <point x="622" y="-84"/>
      <point x="700" y="-84" type="curve" smooth="yes"/>
      <point x="842" y="-84"/>
      <point x="865" y="-66"/>
      <point x="865" y="-25" type="curve" smooth="yes"/>
      <point x="865" y="26"/>
      <point x="799" y="97"/>
      <point x="774" y="136" type="curve" smooth="yes"/>
      <point x="685" y="273"/>
      <point x="634" y="388"/>
      <point x="529" y="483" type="curve" smooth="yes"/>
      <point x="513" y="498"/>
      <point x="470" y="519"/>
      <point x="434" y="541" type="curve" smooth="yes"/>
      <point x="399" y="563"/>
      <point x="369" y="586"/>
      <point x="369" y="607" type="curve" smooth="yes"/>
      <point x="369" y="624"/>
      <point x="373" y="652"/>
      <point x="377" y="679" type="curve" smooth="yes"/>
      <point x="380" y="702"/>
      <point x="383" y="724"/>
      <point x="383" y="739" type="curve" smooth="yes"/>
      <point x="383" y="797"/>
      <point x="336" y="815"/>
      <point x="311" y="815" type="curve" smooth="yes"/>
      <point x="125" y="815" type="line" smooth="yes"/>
      <point x="61" y="815"/>
      <point x="50" y="791"/>
      <point x="50" y="737" type="curve" smooth="yes"/>
      <point x="50" y="710"/>
      <point x="53" y="684"/>
      <point x="55" y="657" type="curve" smooth="yes"/>
      <point x="57" y="631"/>
      <point x="60" y="605"/>
      <point x="60" y="579" type="curve" smooth="yes"/>
      <point x="60" y="468"/>
      <point x="82" y="331"/>
      <point x="151" y="249" type="curve" smooth="yes"/>
      <point x="162" y="235"/>
      <point x="175" y="225"/>
    </contour>
    <contour>
      <point x="802" y="-22" type="curve"/>
      <point x="785" y="-23"/>
      <point x="749" y="-26"/>
      <point x="708" y="-26" type="curve" smooth="yes"/>
      <point x="653" y="-26"/>
      <point x="626" y="-18"/>
      <point x="597" y="57" type="curve" smooth="yes"/>
      <point x="571" y="125"/>
      <point x="563" y="175"/>
      <point x="495" y="175" type="curve" smooth="yes"/>
      <point x="466" y="175"/>
      <point x="452" y="147"/>
      <point x="439" y="128" type="curve"/>
      <point x="423" y="128"/>
      <point x="389" y="128"/>
      <point x="373" y="133" type="curve"/>
      <point x="349" y="167"/>
      <point x="346" y="181"/>
      <point x="316" y="205" type="curve" smooth="yes"/>
      <point x="291" y="225"/>
      <point x="270" y="230"/>
      <point x="249" y="239" type="curve" smooth="yes"/>
      <point x="226" y="249"/>
      <point x="203" y="262"/>
      <point x="176" y="308" type="curve" smooth="yes"/>
      <point x="128" y="388"/>
      <point x="119" y="490"/>
      <point x="119" y="582" type="curve"/>
      <point x="119" y="599"/>
      <point x="116" y="632"/>
      <point x="113" y="665" type="curve" smooth="yes"/>
      <point x="111" y="687"/>
      <point x="109" y="709"/>
      <point x="109" y="726" type="curve" smooth="yes"/>
      <point x="109" y="746"/>
      <point x="122" y="757"/>
      <point x="147" y="757" type="curve" smooth="yes"/>
      <point x="278" y="757" type="line" smooth="yes"/>
      <point x="311" y="757"/>
      <point x="324" y="752"/>
      <point x="324" y="711" type="curve" smooth="yes"/>
      <point x="324" y="697"/>
      <point x="321" y="677"/>
      <point x="318" y="656" type="curve" smooth="yes"/>
      <point x="315" y="633"/>
      <point x="311" y="608"/>
      <point x="311" y="591" type="curve" smooth="yes"/>
      <point x="311" y="553"/>
      <point x="350" y="529"/>
      <point x="396" y="503" type="curve" smooth="yes"/>
      <point x="428" y="485"/>
      <point x="465" y="466"/>
      <point x="494" y="440" type="curve" smooth="yes"/>
      <point x="584" y="362"/>
      <point x="644" y="237"/>
      <point x="718" y="121" type="curve" smooth="yes"/>
      <point x="766" y="46"/>
      <point x="800" y="-11"/>
    </contour>
    <contour>
      <point x="627" y="167" type="curve"/>
      <point x="628" y="214" type="line"/>
      <point x="482" y="246"/>
      <point x="352" y="373"/>
      <point x="287" y="526" type="curve"/>
      <point x="244" y="501" type="line"/>
      <point x="302" y="355"/>
      <point x="428" y="206"/>
    </contour>
    <contour>
      <point x="231" y="687" type="curve" smooth="yes"/>
      <point x="231" y="679"/>
      <point x="233" y="672"/>
      <point x="237" y="667" type="curve"/>
      <point x="197" y="667" type="line"/>
      <point x="201" y="672"/>
      <point x="204" y="679"/>
      <point x="204" y="687" type="curve" smooth="yes"/>
      <point x="204" y="709"/>
      <point x="187" y="725"/>
      <point x="166" y="725" type="curve" smooth="yes"/>
      <point x="146" y="725"/>
      <point x="131" y="709"/>
      <point x="131" y="687" type="curve" smooth="yes"/>
      <point x="131" y="667"/>
      <point x="146" y="652"/>
      <point x="166" y="652" type="curve" smooth="yes"/>
      <point x="173" y="652"/>
      <point x="179" y="653"/>
      <point x="185" y="656" type="curve"/>
      <point x="219" y="568" type="line"/>
      <point x="225" y="567" type="line"/>
      <point x="253" y="654" type="line"/>
      <point x="257" y="652"/>
      <point x="261" y="652"/>
      <point x="266" y="652" type="curve" smooth="yes"/>
      <point x="287" y="652"/>
      <point x="304" y="667"/>
      <point x="304" y="687" type="curve" smooth="yes"/>
      <point x="304" y="709"/>
      <point x="287" y="725"/>
      <point x="266" y="725" type="curve" smooth="yes"/>
      <point x="246" y="725"/>
      <point x="231" y="709"/>
    </contour>
    <contour>
      <point x="275" y="132" type="curve"/>
      <point x="243" y="138"/>
      <point x="231" y="152"/>
      <point x="231" y="169" type="curve" smooth="yes"/>
      <point x="231" y="172"/>
      <point x="232" y="181"/>
      <point x="233" y="190" type="curve"/>
      <point x="256" y="179"/>
      <point x="279" y="169"/>
      <point x="296" y="155" type="curve"/>
      <point x="290" y="145"/>
      <point x="282" y="136"/>
    </contour>
  </outline>
</glyph>
<glyph name="u1098A" format="2">
  <advance width="935"/>
  <unicode hex="1098A"/>
  <outline>
    <contour>
      <point x="440" y="457" type="curve" smooth="yes"/>
      <point x="344" y="353" type="line"/>
      <point x="244" y="457" type="line" smooth="yes"/>
      <point x="235" y="466"/>
      <point x="227" y="473"/>
      <point x="217" y="473" type="curve" smooth="yes"/>
      <point x="209" y="473"/>
      <point x="201" y="469"/>
      <point x="190" y="457" type="curve" smooth="yes"/>
      <point x="66" y="323" type="line" smooth="yes"/>
      <point x="54" y="310"/>
      <point x="50" y="299"/>
      <point x="50" y="290" type="curve" smooth="yes"/>
      <point x="50" y="276"/>
      <point x="67" y="267"/>
      <point x="79" y="267" type="curve" smooth="yes"/>
      <point x="86" y="267"/>
      <point x="93" y="270"/>
      <point x="99" y="277" type="curve" smooth="yes"/>
      <point x="218" y="408" type="line"/>
      <point x="310" y="308" type="line" smooth="yes"/>
      <point x="323" y="294"/>
      <point x="332" y="285"/>
      <point x="343" y="285" type="curve" smooth="yes"/>
      <point x="352" y="285"/>
      <point x="363" y="292"/>
      <point x="378" y="308" type="curve" smooth="yes"/>
      <point x="468" y="408" type="line"/>
      <point x="560" y="308" type="line" smooth="yes"/>
      <point x="573" y="294"/>
      <point x="582" y="285"/>
      <point x="593" y="285" type="curve" smooth="yes"/>
      <point x="602" y="285"/>
      <point x="613" y="292"/>
      <point x="628" y="308" type="curve" smooth="yes"/>
      <point x="718" y="408" type="line"/>
      <point x="837" y="277" type="line" smooth="yes"/>
      <point x="843" y="270"/>
      <point x="850" y="267"/>
      <point x="857" y="267" type="curve" smooth="yes"/>
      <point x="869" y="267"/>
      <point x="885" y="276"/>
      <point x="885" y="290" type="curve" smooth="yes"/>
      <point x="885" y="299"/>
      <point x="881" y="310"/>
      <point x="869" y="323" type="curve" smooth="yes"/>
      <point x="746" y="457" type="line" smooth="yes"/>
      <point x="735" y="469"/>
      <point x="727" y="473"/>
      <point x="719" y="473" type="curve" smooth="yes"/>
      <point x="709" y="473"/>
      <point x="701" y="466"/>
      <point x="692" y="457" type="curve" smooth="yes"/>
      <point x="594" y="353" type="line"/>
      <point x="494" y="457" type="line" smooth="yes"/>
      <point x="485" y="466"/>
      <point x="477" y="473"/>
      <point x="467" y="473" type="curve" smooth="yes"/>
      <point x="459" y="473"/>
      <point x="451" y="469"/>
    </contour>
    <contour>
      <point x="440" y="167" type="curve" smooth="yes"/>
      <point x="344" y="63" type="line"/>
      <point x="244" y="167" type="line" smooth="yes"/>
      <point x="235" y="176"/>
      <point x="227" y="183"/>
      <point x="217" y="183" type="curve" smooth="yes"/>
      <point x="209" y="183"/>
      <point x="201" y="179"/>
      <point x="190" y="167" type="curve" smooth="yes"/>
      <point x="66" y="33" type="line" smooth="yes"/>
      <point x="54" y="20"/>
      <point x="50" y="9"/>
      <point x="50" y="0" type="curve" smooth="yes"/>
      <point x="50" y="-14"/>
      <point x="67" y="-23"/>
      <point x="79" y="-23" type="curve" smooth="yes"/>
      <point x="86" y="-23"/>
      <point x="93" y="-20"/>
      <point x="99" y="-13" type="curve" smooth="yes"/>
      <point x="218" y="118" type="line"/>
      <point x="310" y="18" type="line" smooth="yes"/>
      <point x="323" y="4"/>
      <point x="332" y="-5"/>
      <point x="343" y="-5" type="curve" smooth="yes"/>
      <point x="352" y="-5"/>
      <point x="363" y="2"/>
      <point x="378" y="18" type="curve" smooth="yes"/>
      <point x="468" y="118" type="line"/>
      <point x="560" y="18" type="line" smooth="yes"/>
      <point x="573" y="4"/>
      <point x="582" y="-5"/>
      <point x="593" y="-5" type="curve" smooth="yes"/>
      <point x="602" y="-5"/>
      <point x="613" y="2"/>
      <point x="628" y="18" type="curve" smooth="yes"/>
      <point x="718" y="118" type="line"/>
      <point x="837" y="-13" type="line" smooth="yes"/>
      <point x="843" y="-20"/>
      <point x="850" y="-23"/>
      <point x="857" y="-23" type="curve" smooth="yes"/>
      <point x="869" y="-23"/>
      <point x="885" y="-14"/>
      <point x="885" y="0" type="curve" smooth="yes"/>
      <point x="885" y="9"/>
      <point x="881" y="20"/>
      <point x="869" y="33" type="curve" smooth="yes"/>
      <point x="746" y="167" type="line" smooth="yes"/>
      <point x="735" y="179"/>
      <point x="727" y="183"/>
      <point x="719" y="183" type="curve" smooth="yes"/>
      <point x="709" y="183"/>
      <point x="701" y="176"/>
      <point x="692" y="167" type="curve" smooth="yes"/>
      <point x="594" y="63" type="line"/>
      <point x="494" y="167" type="line" smooth="yes"/>
      <point x="485" y="176"/>
      <point x="477" y="183"/>
      <point x="467" y="183" type="curve" smooth="yes"/>
      <point x="459" y="183"/>
      <point x="451" y="179"/>
    </contour>
  </outline>
</glyph>
<glyph name="u1098F" format="2">
  <advance width="910"/>
  <unicode hex="1098F"/>
  <outline>
    <contour>
      <point x="223" y="170" type="curve"/>
      <point x="687" y="170" type="line" smooth="yes"/>
      <point x="702" y="170"/>
      <point x="710" y="184"/>
      <point x="710" y="199" type="curve" smooth="yes"/>
      <point x="710" y="213"/>
      <point x="702" y="228"/>
      <point x="687" y="228" type="curve" smooth="yes"/>
      <point x="223" y="228" type="line" smooth="yes"/>
      <point x="208" y="228"/>
      <point x="200" y="213"/>
      <point x="200" y="199" type="curve" smooth="yes"/>
      <point x="200" y="184"/>
      <point x="208" y="170"/>
    </contour>
    <contour>
      <point x="860" y="78" type="curve" smooth="yes"/>
      <point x="860" y="307" type="line" smooth="yes"/>
      <point x="860" y="349"/>
      <point x="850" y="385"/>
      <point x="804" y="385" type="curve" smooth="yes"/>
      <point x="106" y="385" type="line" smooth="yes"/>
      <point x="60" y="385"/>
      <point x="50" y="349"/>
      <point x="50" y="307" type="curve" smooth="yes"/>
      <point x="50" y="78" type="line" smooth="yes"/>
      <point x="50" y="36"/>
      <point x="60" y="0"/>
      <point x="106" y="0" type="curve" smooth="yes"/>
      <point x="804" y="0" type="line" smooth="yes"/>
      <point x="850" y="0"/>
      <point x="860" y="36"/>
    </contour>
    <contour>
      <point x="110" y="103" type="curve" smooth="yes"/>
      <point x="110" y="282" type="line" smooth="yes"/>
      <point x="110" y="322"/>
      <point x="118" y="327"/>
      <point x="143" y="327" type="curve" smooth="yes"/>
      <point x="767" y="327" type="line" smooth="yes"/>
      <point x="792" y="327"/>
      <point x="800" y="322"/>
      <point x="800" y="282" type="curve" smooth="yes"/>
      <point x="800" y="103" type="line" smooth="yes"/>
      <point x="800" y="63"/>
      <point x="792" y="58"/>
      <point x="767" y="58" type="curve" smooth="yes"/>
      <point x="143" y="58" type="line" smooth="yes"/>
      <point x="118" y="58"/>
      <point x="110" y="63"/>
    </contour>
  </outline>
</glyph>
<glyph name="u10991" format="2">
  <advance width="1228"/>
  <unicode hex="10991"/>
  <outline>
    <contour>
      <point x="363" y="176" type="curve"/>
      <point x="865" y="176" type="line" smooth="yes"/>
      <point x="880" y="176"/>
      <point x="888" y="190"/>
      <point x="888" y="205" type="curve" smooth="yes"/>
      <point x="888" y="219"/>
      <point x="880" y="234"/>
      <point x="865" y="234" type="curve" smooth="yes"/>
      <point x="363" y="234" type="line" smooth="yes"/>
      <point x="348" y="234"/>
      <point x="340" y="219"/>
      <point x="340" y="205" type="curve" smooth="yes"/>
      <point x="340" y="190"/>
      <point x="348" y="176"/>
    </contour>
    <contour>
      <point x="1178" y="199" type="curve"/>
      <point x="1115" y="297"/>
      <point x="900" y="420"/>
      <point x="614" y="420" type="curve" smooth="yes"/>
      <point x="332" y="420"/>
      <point x="116" y="303"/>
      <point x="50" y="199" type="curve"/>
      <point x="118" y="80"/>
      <point x="332" y="-12"/>
      <point x="614" y="-12" type="curve" smooth="yes"/>
      <point x="900" y="-12"/>
      <point x="1108" y="79"/>
    </contour>
    <contour>
      <point x="1106" y="199" type="curve"/>
      <point x="1045" y="112"/>
      <point x="863" y="48"/>
      <point x="614" y="48" type="curve" smooth="yes"/>
      <point x="369" y="48"/>
      <point x="181" y="112"/>
      <point x="122" y="199" type="curve"/>
      <point x="179" y="274"/>
      <point x="369" y="360"/>
      <point x="614" y="360" type="curve" smooth="yes"/>
      <point x="863" y="360"/>
      <point x="1052" y="269"/>
    </contour>
  </outline>
</glyph>
<glyph name="u10993" format="2">
  <advance width="1126"/>
  <unicode hex="10993"/>
  <outline>
    <contour>
      <point x="1054" y="815" type="curve" smooth="yes"/>
      <point x="836" y="815" type="line" smooth="yes"/>
      <point x="820" y="815"/>
      <point x="810" y="804"/>
      <point x="810" y="791" type="curve" smooth="yes"/>
      <point x="810" y="784"/>
      <point x="814" y="778"/>
      <point x="819" y="770" type="curve" smooth="yes"/>
      <point x="918" y="625" type="line"/>
      <point x="918" y="206" type="line"/>
      <point x="795" y="340" type="line" smooth="yes"/>
      <point x="782" y="354"/>
      <point x="770" y="363"/>
      <point x="757" y="363" type="curve" smooth="yes"/>
      <point x="745" y="363"/>
      <point x="733" y="355"/>
      <point x="719" y="340" type="curve" smooth="yes"/>
      <point x="598" y="207" type="line"/>
      <point x="598" y="638" type="line"/>
      <point x="688" y="769" type="line" smooth="yes"/>
      <point x="692" y="775"/>
      <point x="696" y="785"/>
      <point x="696" y="793" type="curve" smooth="yes"/>
      <point x="696" y="805"/>
      <point x="690" y="815"/>
      <point x="674" y="815" type="curve" smooth="yes"/>
      <point x="456" y="815" type="line" smooth="yes"/>
      <point x="440" y="815"/>
      <point x="430" y="804"/>
      <point x="430" y="791" type="curve" smooth="yes"/>
      <point x="430" y="784"/>
      <point x="434" y="777"/>
      <point x="439" y="769" type="curve" smooth="yes"/>
      <point x="538" y="625" type="line"/>
      <point x="538" y="206" type="line"/>
      <point x="415" y="340" type="line" smooth="yes"/>
      <point x="402" y="354"/>
      <point x="390" y="363"/>
      <point x="377" y="363" type="curve" smooth="yes"/>
      <point x="365" y="363"/>
      <point x="353" y="355"/>
      <point x="339" y="340" type="curve" smooth="yes"/>
      <point x="218" y="207" type="line"/>
      <point x="218" y="638" type="line"/>
      <point x="308" y="769" type="line" smooth="yes"/>
      <point x="312" y="775"/>
      <point x="316" y="785"/>
      <point x="316" y="793" type="curve" smooth="yes"/>
      <point x="316" y="805"/>
      <point x="310" y="815"/>
      <point x="294" y="815" type="curve" smooth="yes"/>
      <point x="76" y="815" type="line" smooth="yes"/>
      <point x="60" y="815"/>
      <point x="50" y="804"/>
      <point x="50" y="791" type="curve" smooth="yes"/>
      <point x="50" y="784"/>
      <point x="54" y="777"/>
      <point x="59" y="769" type="curve" smooth="yes"/>
      <point x="158" y="625" type="line"/>
      <point x="158" y="205" type="line"/>
      <point x="146" y="205" type="line" smooth="yes"/>
      <point x="100" y="205"/>
      <point x="90" y="169"/>
      <point x="90" y="127" type="curve" smooth="yes"/>
      <point x="90" y="78" type="line" smooth="yes"/>
      <point x="90" y="36"/>
      <point x="100" y="0"/>
      <point x="146" y="0" type="curve" smooth="yes"/>
      <point x="990" y="0" type="line" smooth="yes"/>
      <point x="1036" y="0"/>
      <point x="1046" y="36"/>
      <point x="1046" y="78" type="curve" smooth="yes"/>
      <point x="1046" y="127" type="line" smooth="yes"/>
      <point x="1046" y="169"/>
      <point x="1036" y="205"/>
      <point x="990" y="205" type="curve" smooth="yes"/>
      <point x="978" y="205" type="line"/>
      <point x="978" y="638" type="line"/>
      <point x="1068" y="769" type="line" smooth="yes"/>
      <point x="1072" y="775"/>
      <point x="1076" y="785"/>
      <point x="1076" y="793" type="curve" smooth="yes"/>
      <point x="1076" y="805"/>
      <point x="1070" y="815"/>
    </contour>
    <contour>
      <point x="150" y="83" type="curve" smooth="yes"/>
      <point x="150" y="123" type="line" smooth="yes"/>
      <point x="150" y="142"/>
      <point x="158" y="147"/>
      <point x="183" y="147" type="curve" smooth="yes"/>
      <point x="953" y="147" type="line" smooth="yes"/>
      <point x="978" y="147"/>
      <point x="986" y="142"/>
      <point x="986" y="123" type="curve" smooth="yes"/>
      <point x="986" y="82" type="line" smooth="yes"/>
      <point x="986" y="63"/>
      <point x="978" y="58"/>
      <point x="953" y="58" type="curve" smooth="yes"/>
      <point x="183" y="58" type="line" smooth="yes"/>
      <point x="158" y="58"/>
      <point x="150" y="63"/>
    </contour>
    <contour>
      <point x="665" y="205" type="line"/>
      <point x="757" y="307" type="line"/>
      <point x="849" y="205" type="line"/>
    </contour>
    <contour>
      <point x="285" y="205" type="line"/>
      <point x="377" y="307" type="line"/>
      <point x="469" y="205" type="line"/>
    </contour>
    <contour>
      <point x="949" y="674" type="line"/>
      <point x="883" y="765" type="line"/>
      <point x="1005" y="765" type="line"/>
    </contour>
    <contour>
      <point x="569" y="674" type="line"/>
      <point x="503" y="765" type="line"/>
      <point x="625" y="765" type="line"/>
    </contour>
    <contour>
      <point x="189" y="674" type="line"/>
      <point x="123" y="765" type="line"/>
      <point x="245" y="765" type="line"/>
    </contour>
  </outline>
</glyph>
<glyph name="u10994" format="2">
  <advance width="1268"/>
  <unicode hex="10994"/>
  <outline>
    <contour>
      <point x="73" y="156" type="curve"/>
      <point x="500" y="156" type="line"/>
      <point x="500" y="9" type="line" smooth="yes"/>
      <point x="500" y="-5"/>
      <point x="515" y="-12"/>
      <point x="530" y="-12" type="curve" smooth="yes"/>
      <point x="545" y="-12"/>
      <point x="560" y="-5"/>
      <point x="560" y="9" type="curve" smooth="yes"/>
      <point x="560" y="156" type="line"/>
      <point x="708" y="156" type="line"/>
      <point x="708" y="9" type="line" smooth="yes"/>
      <point x="708" y="-5"/>
      <point x="723" y="-12"/>
      <point x="738" y="-12" type="curve" smooth="yes"/>
      <point x="753" y="-12"/>
      <point x="768" y="-5"/>
      <point x="768" y="9" type="curve" smooth="yes"/>
      <point x="768" y="156" type="line"/>
      <point x="1195" y="156" type="line" smooth="yes"/>
      <point x="1210" y="156"/>
      <point x="1218" y="170"/>
      <point x="1218" y="185" type="curve" smooth="yes"/>
      <point x="1218" y="199"/>
      <point x="1210" y="214"/>
      <point x="1195" y="214" type="curve" smooth="yes"/>
      <point x="768" y="214" type="line"/>
      <point x="768" y="343" type="line" smooth="yes"/>
      <point x="768" y="357"/>
      <point x="753" y="364"/>
      <point x="738" y="364" type="curve" smooth="yes"/>
      <point x="723" y="364"/>
      <point x="708" y="357"/>
      <point x="708" y="343" type="curve" smooth="yes"/>
      <point x="708" y="214" type="line"/>
      <point x="560" y="214" type="line"/>
      <point x="560" y="343" type="line" smooth="yes"/>
      <point x="560" y="357"/>
      <point x="545" y="364"/>
      <point x="530" y="364" type="curve" smooth="yes"/>
      <point x="515" y="364"/>
      <point x="500" y="357"/>
      <point x="500" y="343" type="curve" smooth="yes"/>
      <point x="500" y="214" type="line"/>
      <point x="73" y="214" type="line" smooth="yes"/>
      <point x="58" y="214"/>
      <point x="50" y="199"/>
      <point x="50" y="185" type="curve" smooth="yes"/>
      <point x="50" y="170"/>
      <point x="58" y="156"/>
    </contour>
  </outline>
</glyph>
<glyph name="u10995" format="2">
  <advance width="770"/>
  <unicode hex="10995"/>
  <outline>
    <contour>
      <point x="73" y="478" type="curve"/>
      <point x="152" y="478" type="line"/>
      <point x="152" y="126" type="line"/>
      <point x="73" y="126" type="line" smooth="yes"/>
      <point x="58" y="126"/>
      <point x="50" y="111"/>
      <point x="50" y="97" type="curve" smooth="yes"/>
      <point x="50" y="82"/>
      <point x="58" y="68"/>
      <point x="73" y="68" type="curve" smooth="yes"/>
      <point x="152" y="68" type="line"/>
      <point x="152" y="9" type="line" smooth="yes"/>
      <point x="152" y="-5"/>
      <point x="167" y="-12"/>
      <point x="182" y="-12" type="curve" smooth="yes"/>
      <point x="197" y="-12"/>
      <point x="212" y="-5"/>
      <point x="212" y="9" type="curve" smooth="yes"/>
      <point x="212" y="68" type="line"/>
      <point x="558" y="68" type="line"/>
      <point x="558" y="9" type="line" smooth="yes"/>
      <point x="558" y="-5"/>
      <point x="573" y="-12"/>
      <point x="588" y="-12" type="curve" smooth="yes"/>
      <point x="603" y="-12"/>
      <point x="618" y="-5"/>
      <point x="618" y="9" type="curve" smooth="yes"/>
      <point x="618" y="68" type="line"/>
      <point x="697" y="68" type="line" smooth="yes"/>
      <point x="712" y="68"/>
      <point x="720" y="82"/>
      <point x="720" y="97" type="curve" smooth="yes"/>
      <point x="720" y="111"/>
      <point x="712" y="126"/>
      <point x="697" y="126" type="curve" smooth="yes"/>
      <point x="618" y="126" type="line"/>
      <point x="618" y="478" type="line"/>
      <point x="697" y="478" type="line" smooth="yes"/>
      <point x="712" y="478"/>
      <point x="720" y="492"/>
      <point x="720" y="507" type="curve" smooth="yes"/>
      <point x="720" y="521"/>
      <point x="712" y="536"/>
      <point x="697" y="536" type="curve" smooth="yes"/>
      <point x="618" y="536" type="line"/>
      <point x="618" y="589" type="line" smooth="yes"/>
      <point x="618" y="603"/>
      <point x="603" y="610"/>
      <point x="588" y="610" type="curve" smooth="yes"/>
      <point x="573" y="610"/>
      <point x="558" y="603"/>
      <point x="558" y="589" type="curve" smooth="yes"/>
      <point x="558" y="536" type="line"/>
      <point x="212" y="536" type="line"/>
      <point x="212" y="589" type="line" smooth="yes"/>
      <point x="212" y="603"/>
      <point x="197" y="610"/>
      <point x="182" y="610" type="curve" smooth="yes"/>
      <point x="167" y="610"/>
      <point x="152" y="603"/>
      <point x="152" y="589" type="curve" smooth="yes"/>
      <point x="152" y="536" type="line"/>
      <point x="73" y="536" type="line" smooth="yes"/>
      <point x="58" y="536"/>
      <point x="50" y="521"/>
      <point x="50" y="507" type="curve" smooth="yes"/>
      <point x="50" y="492"/>
      <point x="58" y="478"/>
    </contour>
    <contour>
      <point x="212" y="126" type="line"/>
      <point x="212" y="478" type="line"/>
      <point x="558" y="478" type="line"/>
      <point x="558" y="126" type="line"/>
    </contour>
  </outline>
</glyph>
<glyph name="u1099C" format="2">
  <advance width="976"/>
  <unicode hex="1099C"/>
  <outline>
    <contour>
      <point x="187" y="298" type="curve" smooth="yes"/>
      <point x="106" y="298" type="line" smooth="yes"/>
      <point x="60" y="298"/>
      <point x="50" y="272"/>
      <point x="50" y="230" type="curve" smooth="yes"/>
      <point x="50" y="58" type="line" smooth="yes"/>
      <point x="50" y="16"/>
      <point x="60" y="-8"/>
      <point x="106" y="-8" type="curve" smooth="yes"/>
      <point x="207" y="-8" type="line" smooth="yes"/>
      <point x="475" y="-8"/>
      <point x="626" y="98"/>
      <point x="774" y="231" type="curve" smooth="yes"/>
      <point x="854" y="303"/>
      <point x="926" y="391"/>
      <point x="926" y="478" type="curve" smooth="yes"/>
      <point x="926" y="501"/>
      <point x="917" y="510"/>
      <point x="899" y="510" type="curve" smooth="yes"/>
      <point x="877" y="510"/>
      <point x="847" y="491"/>
      <point x="796" y="458" type="curve" smooth="yes"/>
      <point x="608" y="336"/>
      <point x="468" y="298"/>
    </contour>
    <contour>
      <point x="110" y="95" type="curve" smooth="yes"/>
      <point x="110" y="195" type="line" smooth="yes"/>
      <point x="110" y="235"/>
      <point x="118" y="240"/>
      <point x="143" y="240" type="curve" smooth="yes"/>
      <point x="184" y="240" type="line" smooth="yes"/>
      <point x="447" y="240"/>
      <point x="633" y="282"/>
      <point x="813" y="410" type="curve" smooth="yes"/>
      <point x="840" y="429"/>
      <point x="847" y="435"/>
      <point x="854" y="435" type="curve" smooth="yes"/>
      <point x="860" y="435"/>
      <point x="863" y="432"/>
      <point x="863" y="427" type="curve" smooth="yes"/>
      <point x="863" y="415"/>
      <point x="812" y="331"/>
      <point x="720" y="254" type="curve" smooth="yes"/>
      <point x="571" y="129"/>
      <point x="441" y="50"/>
      <point x="211" y="50" type="curve" smooth="yes"/>
      <point x="143" y="50" type="line" smooth="yes"/>
      <point x="118" y="50"/>
      <point x="110" y="55"/>
    </contour>
  </outline>
</glyph>
<glyph name="u1099D" format="2">
  <advance width="930"/>
  <unicode hex="1099D"/>
  <outline>
    <contour>
      <point x="880" y="397" type="curve" smooth="yes"/>
      <point x="798" y="397"/>
      <point x="749" y="422"/>
      <point x="701" y="449" type="curve" smooth="yes"/>
      <point x="619" y="496"/>
      <point x="527" y="550"/>
      <point x="370" y="550" type="curve" smooth="yes"/>
      <point x="280" y="550"/>
      <point x="193" y="525"/>
      <point x="128" y="491" type="curve"/>
      <point x="128" y="495" type="line" smooth="yes"/>
      <point x="128" y="566"/>
      <point x="228" y="597"/>
      <point x="362" y="597" type="curve" smooth="yes"/>
      <point x="472" y="597"/>
      <point x="551" y="563"/>
      <point x="636" y="528" type="curve" smooth="yes"/>
      <point x="730" y="489"/>
      <point x="767" y="457"/>
      <point x="880" y="457" type="curve" smooth="yes"/>
      <point x="898" y="457"/>
      <point x="909" y="470"/>
      <point x="909" y="487" type="curve" smooth="yes"/>
      <point x="909" y="501"/>
      <point x="904" y="517"/>
      <point x="880" y="517" type="curve" smooth="yes"/>
      <point x="775" y="517"/>
      <point x="732" y="547"/>
      <point x="650" y="582" type="curve" smooth="yes"/>
      <point x="566" y="618"/>
      <point x="472" y="657"/>
      <point x="364" y="657" type="curve" smooth="yes"/>
      <point x="217" y="657"/>
      <point x="70" y="610"/>
      <point x="70" y="511" type="curve" smooth="yes"/>
      <point x="70" y="502"/>
      <point x="70" y="481"/>
      <point x="76" y="461" type="curve"/>
      <point x="48" y="441"/>
      <point x="28" y="420"/>
      <point x="17" y="401" type="curve"/>
      <point x="46" y="342"/>
      <point x="133" y="287"/>
      <point x="242" y="262" type="curve"/>
      <point x="241" y="171"/>
      <point x="230" y="80"/>
      <point x="228" y="3" type="curve" smooth="yes"/>
      <point x="228" y="-13"/>
      <point x="240" y="-20"/>
      <point x="254" y="-20" type="curve" smooth="yes"/>
      <point x="270" y="-20"/>
      <point x="287" y="-11"/>
      <point x="288" y="3" type="curve" smooth="yes"/>
      <point x="293" y="60"/>
      <point x="298" y="151"/>
      <point x="301" y="251" type="curve"/>
      <point x="322" y="249"/>
      <point x="344" y="247"/>
      <point x="366" y="247" type="curve"/>
      <point x="465" y="99"/>
      <point x="610" y="-20"/>
      <point x="778" y="-20" type="curve" smooth="yes"/>
      <point x="854" y="-20"/>
      <point x="881" y="26"/>
      <point x="881" y="66" type="curve" smooth="yes"/>
      <point x="881" y="103"/>
      <point x="863" y="121"/>
      <point x="843" y="132" type="curve" smooth="yes"/>
      <point x="828" y="140"/>
      <point x="817" y="143"/>
      <point x="808" y="143" type="curve" smooth="yes"/>
      <point x="796" y="143"/>
      <point x="787" y="133"/>
      <point x="787" y="115" type="curve" smooth="yes"/>
      <point x="787" y="101"/>
      <point x="796" y="98"/>
      <point x="804" y="94" type="curve" smooth="yes"/>
      <point x="813" y="90"/>
      <point x="821" y="83"/>
      <point x="821" y="70" type="curve" smooth="yes"/>
      <point x="821" y="55"/>
      <point x="810" y="40"/>
      <point x="776" y="40" type="curve" smooth="yes"/>
      <point x="646" y="40"/>
      <point x="516" y="129"/>
      <point x="430" y="251" type="curve"/>
      <point x="544" y="268"/>
      <point x="661" y="326"/>
      <point x="711" y="382" type="curve"/>
      <point x="761" y="355"/>
      <point x="811" y="337"/>
      <point x="880" y="337" type="curve" smooth="yes"/>
      <point x="898" y="337"/>
      <point x="908" y="355"/>
      <point x="908" y="370" type="curve" smooth="yes"/>
      <point x="908" y="384"/>
      <point x="899" y="397"/>
    </contour>
    <contour>
      <point x="370" y="307" type="curve" smooth="yes"/>
      <point x="230" y="307"/>
      <point x="130" y="350"/>
      <point x="96" y="401" type="curve"/>
      <point x="119" y="432"/>
      <point x="177" y="466"/>
      <point x="259" y="482" type="curve"/>
      <point x="256" y="472"/>
      <point x="255" y="461"/>
      <point x="255" y="450" type="curve" smooth="yes"/>
      <point x="255" y="388"/>
      <point x="296" y="336"/>
      <point x="369" y="336" type="curve" smooth="yes"/>
      <point x="441" y="336"/>
      <point x="486" y="388"/>
      <point x="486" y="450" type="curve" smooth="yes"/>
      <point x="486" y="461"/>
      <point x="484" y="472"/>
      <point x="481" y="483" type="curve"/>
      <point x="559" y="468"/>
      <point x="616" y="440"/>
      <point x="657" y="415" type="curve"/>
      <point x="608" y="360"/>
      <point x="488" y="307"/>
    </contour>
    <contour>
      <point x="370" y="493" type="curve" smooth="yes"/>
      <point x="388" y="493"/>
      <point x="406" y="492"/>
      <point x="423" y="491" type="curve"/>
      <point x="428" y="480"/>
      <point x="431" y="467"/>
      <point x="431" y="454" type="curve" smooth="yes"/>
      <point x="431" y="412"/>
      <point x="411" y="385"/>
      <point x="370" y="385" type="curve" smooth="yes"/>
      <point x="330" y="385"/>
      <point x="310" y="412"/>
      <point x="310" y="454" type="curve" smooth="yes"/>
      <point x="310" y="467"/>
      <point x="312" y="479"/>
      <point x="317" y="490" type="curve"/>
      <point x="334" y="492"/>
      <point x="351" y="493"/>
    </contour>
  </outline>
</glyph>
<glyph name="u1099E" format="2">
  <advance width="528"/>
  <unicode hex="1099E"/>
  <outline>
    <contour>
      <point x="63" y="306" type="curve"/>
      <point x="234" y="306" type="line"/>
      <point x="234" y="9" type="line" smooth="yes"/>
      <point x="234" y="-5"/>
      <point x="249" y="-12"/>
      <point x="264" y="-12" type="curve" smooth="yes"/>
      <point x="279" y="-12"/>
      <point x="294" y="-5"/>
      <point x="294" y="9" type="curve" smooth="yes"/>
      <point x="294" y="306" type="line"/>
      <point x="465" y="306" type="line" smooth="yes"/>
      <point x="480" y="306"/>
      <point x="488" y="320"/>
      <point x="488" y="335" type="curve" smooth="yes"/>
      <point x="488" y="349"/>
      <point x="480" y="364"/>
      <point x="465" y="364" type="curve" smooth="yes"/>
      <point x="326" y="364" type="line"/>
      <point x="378" y="424"/>
      <point x="424" y="495"/>
      <point x="424" y="565" type="curve" smooth="yes"/>
      <point x="424" y="654"/>
      <point x="360" y="720"/>
      <point x="265" y="720" type="curve" smooth="yes"/>
      <point x="167" y="720"/>
      <point x="104" y="655"/>
      <point x="104" y="565" type="curve" smooth="yes"/>
      <point x="104" y="495"/>
      <point x="149" y="424"/>
      <point x="200" y="364" type="curve"/>
      <point x="63" y="364" type="line" smooth="yes"/>
      <point x="48" y="364"/>
      <point x="40" y="349"/>
      <point x="40" y="335" type="curve" smooth="yes"/>
      <point x="40" y="320"/>
      <point x="48" y="306"/>
    </contour>
    <contour>
      <point x="363" y="561" type="curve" smooth="yes"/>
      <point x="363" y="494"/>
      <point x="314" y="427"/>
      <point x="265" y="377" type="curve"/>
      <point x="215" y="427"/>
      <point x="168" y="494"/>
      <point x="168" y="561" type="curve" smooth="yes"/>
      <point x="168" y="627"/>
      <point x="216" y="660"/>
      <point x="264" y="660" type="curve" smooth="yes"/>
      <point x="320" y="660"/>
      <point x="363" y="628"/>
    </contour>
  </outline>
</glyph>
<glyph name="u109A2" format="2">
  <advance width="504"/>
  <unicode hex="109A2"/>
  <outline>
    <contour>
      <point x="85" y="572" type="curve" smooth="yes"/>
      <point x="69" y="444"/>
      <point x="44" y="400"/>
      <point x="23" y="345" type="curve" smooth="yes"/>
      <point x="20" y="338"/>
      <point x="20" y="333"/>
      <point x="20" y="328" type="curve" smooth="yes"/>
      <point x="20" y="310"/>
      <point x="32" y="305"/>
      <point x="65" y="305" type="curve" smooth="yes"/>
      <point x="291" y="305" type="line"/>
      <point x="226" y="4" type="line" smooth="yes"/>
      <point x="223" y="-12"/>
      <point x="218" y="-29"/>
      <point x="218" y="-43" type="curve" smooth="yes"/>
      <point x="218" y="-60"/>
      <point x="224" y="-70"/>
      <point x="244" y="-70" type="curve" smooth="yes"/>
      <point x="281" y="-70"/>
      <point x="282" y="-55"/>
      <point x="292" y="-9" type="curve" smooth="yes"/>
      <point x="361" y="305" type="line"/>
      <point x="509" y="305" type="line" smooth="yes"/>
      <point x="533" y="305"/>
      <point x="538" y="315"/>
      <point x="544" y="342" type="curve" smooth="yes"/>
      <point x="545" y="348"/>
      <point x="546" y="352"/>
      <point x="546" y="356" type="curve" smooth="yes"/>
      <point x="546" y="371"/>
      <point x="535" y="373"/>
      <point x="517" y="373" type="curve" smooth="yes"/>
      <point x="375" y="373" type="line"/>
      <point x="433" y="646" type="line" smooth="yes"/>
      <point x="436" y="662"/>
      <point x="441" y="679"/>
      <point x="441" y="693" type="curve" smooth="yes"/>
      <point x="441" y="710"/>
      <point x="435" y="720"/>
      <point x="415" y="720" type="curve" smooth="yes"/>
      <point x="377" y="720"/>
      <point x="377" y="704"/>
      <point x="366" y="655" type="curve" smooth="yes"/>
      <point x="305" y="373" type="line"/>
      <point x="102" y="373" type="line"/>
      <point x="130" y="434"/>
      <point x="145" y="504"/>
      <point x="154" y="572" type="curve" smooth="yes"/>
      <point x="155" y="582"/>
      <point x="156" y="591"/>
      <point x="156" y="598" type="curve" smooth="yes"/>
      <point x="156" y="620"/>
      <point x="149" y="626"/>
      <point x="126" y="626" type="curve" smooth="yes"/>
      <point x="91" y="626"/>
      <point x="89" y="605"/>
    </contour>
  </outline>
</glyph>
<glyph name="u109A3" format="2">
  <advance width="348"/>
  <unicode hex="109A3"/>
  <outline>
    <contour>
      <point x="166" y="70" type="curve" smooth="yes"/>
      <point x="270" y="544" type="line" smooth="yes"/>
      <point x="274" y="560"/>
      <point x="278" y="577"/>
      <point x="278" y="591" type="curve" smooth="yes"/>
      <point x="278" y="608"/>
      <point x="272" y="618"/>
      <point x="252" y="618" type="curve" smooth="yes"/>
      <point x="214" y="618"/>
      <point x="214" y="603"/>
      <point x="202" y="548" type="curve" smooth="yes"/>
      <point x="98" y="74" type="line" smooth="yes"/>
      <point x="94" y="58"/>
      <point x="90" y="41"/>
      <point x="90" y="27" type="curve" smooth="yes"/>
      <point x="90" y="10"/>
      <point x="96" y="0"/>
      <point x="116" y="0" type="curve" smooth="yes"/>
      <point x="154" y="0"/>
      <point x="153" y="13"/>
    </contour>
  </outline>
</glyph>
<glyph name="u109A5" format="2">
  <advance width="477"/>
  <unicode hex="109A5"/>
  <outline>
    <contour>
      <point x="192" y="629" type="curve" smooth="yes"/>
      <point x="227" y="602"/>
      <point x="237" y="563"/>
      <point x="237" y="536" type="curve" smooth="yes"/>
      <point x="237" y="473"/>
      <point x="183" y="438"/>
      <point x="120" y="374" type="curve" smooth="yes"/>
      <point x="77" y="330"/>
      <point x="20" y="267"/>
      <point x="20" y="170" type="curve" smooth="yes"/>
      <point x="20" y="59"/>
      <point x="99" y="-10"/>
      <point x="208" y="-10" type="curve" smooth="yes"/>
      <point x="374" y="-10"/>
      <point x="427" y="109"/>
      <point x="427" y="223" type="curve" smooth="yes"/>
      <point x="427" y="333"/>
      <point x="356" y="413"/>
      <point x="282" y="457" type="curve"/>
      <point x="298" y="483"/>
      <point x="309" y="511"/>
      <point x="309" y="541" type="curve" smooth="yes"/>
      <point x="309" y="584"/>
      <point x="291" y="634"/>
      <point x="238" y="679" type="curve" smooth="yes"/>
      <point x="220" y="694"/>
      <point x="208" y="700"/>
      <point x="203" y="700" type="curve" smooth="yes"/>
      <point x="178" y="700"/>
      <point x="163" y="684"/>
      <point x="163" y="666" type="curve" smooth="yes"/>
      <point x="163" y="652"/>
      <point x="175" y="642"/>
    </contour>
    <contour>
      <point x="355" y="221" type="curve" smooth="yes"/>
      <point x="355" y="149"/>
      <point x="325" y="58"/>
      <point x="211" y="58" type="curve" smooth="yes"/>
      <point x="136" y="58"/>
      <point x="92" y="99"/>
      <point x="92" y="174" type="curve" smooth="yes"/>
      <point x="92" y="236"/>
      <point x="122" y="287"/>
      <point x="159" y="325" type="curve" smooth="yes"/>
      <point x="185" y="351"/>
      <point x="215" y="378"/>
      <point x="242" y="406" type="curve"/>
      <point x="298" y="371"/>
      <point x="355" y="310"/>
    </contour>
  </outline>
</glyph>
<glyph name="u109A9" format="2">
  <advance width="584"/>
  <unicode hex="109A9"/>
  <outline>
    <contour>
      <point x="297" y="308" type="curve" smooth="yes"/>
      <point x="390" y="308"/>
      <point x="420" y="279"/>
      <point x="420" y="243" type="curve" smooth="yes"/>
      <point x="420" y="144"/>
      <point x="333" y="72"/>
      <point x="243" y="56" type="curve" smooth="yes"/>
      <point x="234" y="54"/>
      <point x="231" y="51"/>
      <point x="229" y="45" type="curve" smooth="yes"/>
      <point x="227" y="41"/>
      <point x="225" y="30"/>
      <point x="225" y="20" type="curve" smooth="yes"/>
      <point x="225" y="7"/>
      <point x="229" y="-5"/>
      <point x="241" y="-8" type="curve" smooth="yes"/>
      <point x="362" y="-38"/>
      <point x="398" y="-154"/>
      <point x="597" y="-154" type="curve" smooth="yes"/>
      <point x="623" y="-154"/>
      <point x="634" y="-134"/>
      <point x="634" y="-115" type="curve" smooth="yes"/>
      <point x="634" y="-100"/>
      <point x="627" y="-86"/>
      <point x="615" y="-86" type="curve" smooth="yes"/>
      <point x="534" y="-86"/>
      <point x="483" y="-69"/>
      <point x="441" y="-46" type="curve" smooth="yes"/>
      <point x="401" y="-24"/>
      <point x="369" y="3"/>
      <point x="329" y="24" type="curve"/>
      <point x="446" y="82"/>
      <point x="492" y="177"/>
      <point x="492" y="246" type="curve" smooth="yes"/>
      <point x="492" y="297"/>
      <point x="463" y="334"/>
      <point x="396" y="349" type="curve"/>
      <point x="456" y="382"/>
      <point x="494" y="430"/>
      <point x="494" y="499" type="curve" smooth="yes"/>
      <point x="494" y="575"/>
      <point x="444" y="630"/>
      <point x="351" y="630" type="curve" smooth="yes"/>
      <point x="299" y="630"/>
      <point x="195" y="614"/>
      <point x="163" y="472" type="curve" smooth="yes"/>
      <point x="58" y="4" type="line" smooth="yes"/>
      <point x="54" y="-12"/>
      <point x="50" y="-29"/>
      <point x="50" y="-43" type="curve" smooth="yes"/>
      <point x="50" y="-60"/>
      <point x="56" y="-70"/>
      <point x="76" y="-70" type="curve" smooth="yes"/>
      <point x="114" y="-70"/>
      <point x="113" y="-58"/>
      <point x="125" y="-5" type="curve" smooth="yes"/>
      <point x="230" y="458" type="line" smooth="yes"/>
      <point x="248" y="539"/>
      <point x="302" y="562"/>
      <point x="349" y="562" type="curve" smooth="yes"/>
      <point x="395" y="562"/>
      <point x="422" y="533"/>
      <point x="422" y="497" type="curve" smooth="yes"/>
      <point x="422" y="435"/>
      <point x="360" y="379"/>
      <point x="305" y="364" type="curve" smooth="yes"/>
      <point x="292" y="360"/>
      <point x="284" y="352"/>
      <point x="284" y="332" type="curve" smooth="yes"/>
      <point x="284" y="322"/>
      <point x="287" y="308"/>
    </contour>
  </outline>
</glyph>
<glyph name="u109AA" format="2">
  <advance width="537"/>
  <unicode hex="109AA"/>
  <outline>
    <contour>
      <point x="27" y="139" type="curve" smooth="yes"/>
      <point x="3" y="115"/>
      <point x="-20" y="105"/>
      <point x="-20" y="83" type="curve" smooth="yes"/>
      <point x="-20" y="67"/>
      <point x="-4" y="54"/>
      <point x="12" y="54" type="curve" smooth="yes"/>
      <point x="36" y="54"/>
      <point x="55" y="78"/>
      <point x="74" y="97" type="curve" smooth="yes"/>
      <point x="133" y="156"/>
      <point x="185" y="219"/>
      <point x="230" y="282" type="curve"/>
      <point x="289" y="144"/>
      <point x="374" y="12"/>
      <point x="493" y="-79" type="curve" smooth="yes"/>
      <point x="515" y="-96"/>
      <point x="538" y="-112"/>
      <point x="560" y="-112" type="curve" smooth="yes"/>
      <point x="576" y="-112"/>
      <point x="587" y="-87"/>
      <point x="587" y="-73" type="curve" smooth="yes"/>
      <point x="587" y="-52"/>
      <point x="551" y="-35"/>
      <point x="540" y="-26" type="curve" smooth="yes"/>
      <point x="433" y="55"/>
      <point x="343" y="183"/>
      <point x="276" y="350" type="curve"/>
      <point x="314" y="410"/>
      <point x="347" y="470"/>
      <point x="374" y="528" type="curve" smooth="yes"/>
      <point x="379" y="539"/>
      <point x="383" y="548"/>
      <point x="383" y="557" type="curve" smooth="yes"/>
      <point x="383" y="570"/>
      <point x="373" y="581"/>
      <point x="342" y="586" type="curve" smooth="yes"/>
      <point x="203" y="610" type="line" smooth="yes"/>
      <point x="195" y="611"/>
      <point x="186" y="613"/>
      <point x="179" y="613" type="curve" smooth="yes"/>
      <point x="160" y="613"/>
      <point x="141" y="603"/>
      <point x="141" y="578" type="curve" smooth="yes"/>
      <point x="141" y="573"/>
      <point x="144" y="557"/>
      <point x="145" y="551" type="curve" smooth="yes"/>
      <point x="159" y="487"/>
      <point x="178" y="420"/>
      <point x="202" y="353" type="curve"/>
      <point x="152" y="278"/>
      <point x="93" y="205"/>
    </contour>
    <contour>
      <point x="248" y="425" type="curve"/>
      <point x="235" y="463"/>
      <point x="223" y="503"/>
      <point x="212" y="545" type="curve"/>
      <point x="302" y="528" type="line"/>
      <point x="286" y="494"/>
      <point x="268" y="460"/>
    </contour>
  </outline>
</glyph>
<glyph name="u109AC" format="2">
  <advance width="331"/>
  <unicode hex="109AC"/>
  <outline>
    <contour>
      <point x="64" y="306" type="curve" smooth="yes"/>
      <point x="129" y="306"/>
      <point x="164" y="310"/>
      <point x="219" y="317" type="curve"/>
      <point x="73" y="41" type="line" smooth="yes"/>
      <point x="65" y="25"/>
      <point x="61" y="14"/>
      <point x="61" y="6" type="curve" smooth="yes"/>
      <point x="61" y="-11"/>
      <point x="86" y="-17"/>
      <point x="99" y="-17" type="curve" smooth="yes"/>
      <point x="116" y="-17"/>
      <point x="124" y="-4"/>
      <point x="131" y="10" type="curve" smooth="yes"/>
      <point x="286" y="305" type="line" smooth="yes"/>
      <point x="295" y="322"/>
      <point x="301" y="337"/>
      <point x="301" y="351" type="curve" smooth="yes"/>
      <point x="301" y="371"/>
      <point x="292" y="386"/>
      <point x="278" y="386" type="curve" smooth="yes"/>
      <point x="256" y="386"/>
      <point x="178" y="375"/>
      <point x="114" y="373" type="curve"/>
      <point x="133" y="421"/>
      <point x="146" y="471"/>
      <point x="162" y="514" type="curve" smooth="yes"/>
      <point x="170" y="536"/>
      <point x="177" y="561"/>
      <point x="177" y="570" type="curve" smooth="yes"/>
      <point x="177" y="580"/>
      <point x="165" y="586"/>
      <point x="142" y="586" type="curve" smooth="yes"/>
      <point x="116" y="586"/>
      <point x="108" y="562"/>
      <point x="104" y="550" type="curve" smooth="yes"/>
      <point x="90" y="509"/>
      <point x="66" y="421"/>
      <point x="48" y="373" type="curve" smooth="yes"/>
      <point x="45" y="365"/>
      <point x="40" y="350"/>
      <point x="40" y="338" type="curve" smooth="yes"/>
      <point x="40" y="308"/>
      <point x="54" y="306"/>
    </contour>
  </outline>
</glyph>
<glyph name="u109AF" format="2">
  <advance width="374"/>
  <unicode hex="109AF"/>
  <outline>
    <contour>
      <point x="206" y="339" type="curve"/>
      <point x="273" y="360"/>
      <point x="334" y="397"/>
      <point x="334" y="469" type="curve" smooth="yes"/>
      <point x="334" y="520"/>
      <point x="292" y="590"/>
      <point x="139" y="614" type="curve" smooth="yes"/>
      <point x="122" y="617"/>
      <point x="93" y="620"/>
      <point x="83" y="620" type="curve" smooth="yes"/>
      <point x="62" y="620"/>
      <point x="49" y="604"/>
      <point x="49" y="586" type="curve" smooth="yes"/>
      <point x="49" y="575"/>
      <point x="53" y="563"/>
      <point x="65" y="560" type="curve" smooth="yes"/>
      <point x="82" y="556"/>
      <point x="98" y="556"/>
      <point x="113" y="554" type="curve" smooth="yes"/>
      <point x="239" y="537"/>
      <point x="264" y="490"/>
      <point x="264" y="460" type="curve" smooth="yes"/>
      <point x="264" y="402"/>
      <point x="167" y="375"/>
      <point x="115" y="372" type="curve" smooth="yes"/>
      <point x="98" y="371"/>
      <point x="93" y="355"/>
      <point x="93" y="340" type="curve" smooth="yes"/>
      <point x="93" y="330"/>
      <point x="96" y="320"/>
      <point x="103" y="317" type="curve" smooth="yes"/>
      <point x="116" y="312"/>
      <point x="132" y="307"/>
      <point x="142" y="303" type="curve" smooth="yes"/>
      <point x="218" y="276"/>
      <point x="230" y="242"/>
      <point x="230" y="212" type="curve" smooth="yes"/>
      <point x="230" y="133"/>
      <point x="139" y="28"/>
      <point x="-56" y="-33" type="curve" smooth="yes"/>
      <point x="-73" y="-38"/>
      <point x="-80" y="-49"/>
      <point x="-80" y="-61" type="curve" smooth="yes"/>
      <point x="-80" y="-76"/>
      <point x="-67" y="-95"/>
      <point x="-47" y="-95" type="curve" smooth="yes"/>
      <point x="-37" y="-95"/>
      <point x="-25" y="-92"/>
      <point x="-9" y="-86" type="curve" smooth="yes"/>
      <point x="266" y="18"/>
      <point x="302" y="160"/>
      <point x="302" y="216" type="curve" smooth="yes"/>
      <point x="302" y="271"/>
      <point x="259" y="312"/>
    </contour>
  </outline>
</glyph>
<glyph name="u109B2" format="2">
  <advance width="401"/>
  <unicode hex="109B2"/>
  <outline>
    <contour>
      <point x="205" y="339" type="curve"/>
      <point x="272" y="360"/>
      <point x="333" y="397"/>
      <point x="333" y="469" type="curve" smooth="yes"/>
      <point x="333" y="520"/>
      <point x="291" y="590"/>
      <point x="138" y="614" type="curve" smooth="yes"/>
      <point x="121" y="617"/>
      <point x="92" y="620"/>
      <point x="82" y="620" type="curve" smooth="yes"/>
      <point x="61" y="620"/>
      <point x="48" y="604"/>
      <point x="48" y="586" type="curve" smooth="yes"/>
      <point x="48" y="575"/>
      <point x="52" y="563"/>
      <point x="64" y="560" type="curve" smooth="yes"/>
      <point x="81" y="556"/>
      <point x="97" y="556"/>
      <point x="112" y="554" type="curve" smooth="yes"/>
      <point x="238" y="537"/>
      <point x="263" y="490"/>
      <point x="263" y="460" type="curve" smooth="yes"/>
      <point x="263" y="402"/>
      <point x="166" y="375"/>
      <point x="114" y="372" type="curve" smooth="yes"/>
      <point x="97" y="371"/>
      <point x="92" y="355"/>
      <point x="92" y="340" type="curve" smooth="yes"/>
      <point x="92" y="330"/>
      <point x="94" y="321"/>
      <point x="101" y="318" type="curve" smooth="yes"/>
      <point x="114" y="312"/>
      <point x="126" y="311"/>
      <point x="136" y="307" type="curve" smooth="yes"/>
      <point x="212" y="280"/>
      <point x="229" y="242"/>
      <point x="229" y="212" type="curve" smooth="yes"/>
      <point x="229" y="133"/>
      <point x="124" y="67"/>
      <point x="23" y="44" type="curve" smooth="yes"/>
      <point x="6" y="40"/>
      <point x="0" y="27"/>
      <point x="0" y="15" type="curve" smooth="yes"/>
      <point x="0" y="0"/>
      <point x="7" y="-17"/>
      <point x="29" y="-19" type="curve" smooth="yes"/>
      <point x="103" y="-26"/>
      <point x="168" y="-71"/>
      <point x="235" y="-113" type="curve" smooth="yes"/>
      <point x="300" y="-154"/>
      <point x="367" y="-193"/>
      <point x="444" y="-193" type="curve" smooth="yes"/>
      <point x="470" y="-193"/>
      <point x="481" y="-173"/>
      <point x="481" y="-154" type="curve" smooth="yes"/>
      <point x="481" y="-139"/>
      <point x="474" y="-125"/>
      <point x="462" y="-125" type="curve" smooth="yes"/>
      <point x="383" y="-125"/>
      <point x="328" y="-92"/>
      <point x="274" y="-57" type="curve" smooth="yes"/>
      <point x="228" y="-27"/>
      <point x="184" y="3"/>
      <point x="127" y="18" type="curve"/>
      <point x="276" y="75"/>
      <point x="301" y="165"/>
      <point x="301" y="216" type="curve" smooth="yes"/>
      <point x="301" y="271"/>
      <point x="258" y="312"/>
    </contour>
  </outline>
</glyph>
<glyph name="u109B5" format="2">
  <advance width="786"/>
  <unicode hex="109B5"/>
  <outline>
    <contour>
      <point x="469" y="400" type="line"/>
      <point x="500" y="544" type="line" smooth="yes"/>
      <point x="503" y="560"/>
      <point x="508" y="582"/>
      <point x="508" y="591" type="curve" smooth="yes"/>
      <point x="508" y="608"/>
      <point x="502" y="618"/>
      <point x="482" y="618" type="curve" smooth="yes"/>
      <point x="444" y="618"/>
      <point x="444" y="603"/>
      <point x="432" y="548" type="curve" smooth="yes"/>
      <point x="399" y="400" type="line"/>
      <point x="356" y="400" type="line"/>
      <point x="342" y="414"/>
      <point x="329" y="426"/>
      <point x="318" y="426" type="curve" smooth="yes"/>
      <point x="307" y="426"/>
      <point x="298" y="415"/>
      <point x="286" y="386" type="curve" smooth="yes"/>
      <point x="283" y="379"/>
      <point x="274" y="360"/>
      <point x="274" y="355" type="curve" smooth="yes"/>
      <point x="274" y="337"/>
      <point x="286" y="332"/>
      <point x="319" y="332" type="curve" smooth="yes"/>
      <point x="385" y="332" type="line"/>
      <point x="369" y="257" type="line" smooth="yes"/>
      <point x="365" y="237"/>
      <point x="356" y="212"/>
      <point x="356" y="191" type="curve" smooth="yes"/>
      <point x="356" y="169"/>
      <point x="366" y="153"/>
      <point x="398" y="153" type="curve" smooth="yes"/>
      <point x="483" y="153" type="line"/>
      <point x="422" y="-15" type="line" smooth="yes"/>
      <point x="416" y="-31"/>
      <point x="409" y="-49"/>
      <point x="409" y="-63" type="curve" smooth="yes"/>
      <point x="409" y="-80"/>
      <point x="415" y="-90"/>
      <point x="435" y="-90" type="curve" smooth="yes"/>
      <point x="477" y="-90"/>
      <point x="470" y="-84"/>
      <point x="490" y="-29" type="curve" smooth="yes"/>
      <point x="552" y="145" type="line" smooth="yes"/>
      <point x="556" y="155"/>
      <point x="562" y="182"/>
      <point x="562" y="189" type="curve" smooth="yes"/>
      <point x="562" y="206"/>
      <point x="552" y="216"/>
      <point x="532" y="216" type="curve" smooth="yes"/>
      <point x="429" y="216" type="line"/>
      <point x="454" y="332" type="line"/>
      <point x="729" y="332" type="line" smooth="yes"/>
      <point x="753" y="332"/>
      <point x="759" y="342"/>
      <point x="764" y="369" type="curve" smooth="yes"/>
      <point x="765" y="375"/>
      <point x="766" y="379"/>
      <point x="766" y="383" type="curve" smooth="yes"/>
      <point x="766" y="398"/>
      <point x="755" y="400"/>
      <point x="737" y="400" type="curve" smooth="yes"/>
    </contour>
    <contour>
      <point x="136" y="70" type="curve" smooth="yes"/>
      <point x="240" y="544" type="line" smooth="yes"/>
      <point x="244" y="560"/>
      <point x="248" y="577"/>
      <point x="248" y="591" type="curve" smooth="yes"/>
      <point x="248" y="608"/>
      <point x="242" y="618"/>
      <point x="222" y="618" type="curve" smooth="yes"/>
      <point x="184" y="618"/>
      <point x="184" y="603"/>
      <point x="172" y="548" type="curve" smooth="yes"/>
      <point x="68" y="74" type="line" smooth="yes"/>
      <point x="64" y="58"/>
      <point x="60" y="41"/>
      <point x="60" y="27" type="curve" smooth="yes"/>
      <point x="60" y="10"/>
      <point x="66" y="0"/>
      <point x="86" y="0" type="curve" smooth="yes"/>
      <point x="124" y="0"/>
      <point x="123" y="13"/>
    </contour>
  </outline>
</glyph>
<glyph name="u109B7" format="2">
  <advance width="561"/>
  <unicode hex="109B7"/>
  <outline>
    <contour>
      <point x="509" y="323" type="curve" smooth="yes"/>
      <point x="436" y="250"/>
      <point x="392" y="225"/>
      <point x="365" y="225" type="curve" smooth="yes"/>
      <point x="347" y="225"/>
      <point x="307" y="332"/>
      <point x="297" y="351" type="curve"/>
      <point x="318" y="384"/>
      <point x="337" y="417"/>
      <point x="354" y="449" type="curve" smooth="yes"/>
      <point x="373" y="484"/>
      <point x="403" y="540"/>
      <point x="403" y="557" type="curve" smooth="yes"/>
      <point x="403" y="570"/>
      <point x="394" y="580"/>
      <point x="362" y="586" type="curve" smooth="yes"/>
      <point x="227" y="610" type="line" smooth="yes"/>
      <point x="218" y="612"/>
      <point x="206" y="613"/>
      <point x="199" y="613" type="curve" smooth="yes"/>
      <point x="180" y="613"/>
      <point x="161" y="603"/>
      <point x="161" y="578" type="curve" smooth="yes"/>
      <point x="161" y="564"/>
      <point x="177" y="496"/>
      <point x="186" y="465" type="curve" smooth="yes"/>
      <point x="197" y="428"/>
      <point x="209" y="391"/>
      <point x="223" y="354" type="curve"/>
      <point x="173" y="279"/>
      <point x="114" y="205"/>
      <point x="47" y="139" type="curve" smooth="yes"/>
      <point x="23" y="115"/>
      <point x="0" y="105"/>
      <point x="0" y="83" type="curve" smooth="yes"/>
      <point x="0" y="67"/>
      <point x="16" y="54"/>
      <point x="32" y="54" type="curve" smooth="yes"/>
      <point x="56" y="54"/>
      <point x="75" y="78"/>
      <point x="94" y="97" type="curve" smooth="yes"/>
      <point x="154" y="157"/>
      <point x="206" y="220"/>
      <point x="252" y="284" type="curve"/>
      <point x="284" y="220"/>
      <point x="311" y="150"/>
      <point x="354" y="150" type="curve" smooth="yes"/>
      <point x="414" y="150"/>
      <point x="499" y="221"/>
      <point x="547" y="267" type="curve" smooth="yes"/>
      <point x="557" y="276"/>
      <point x="561" y="286"/>
      <point x="561" y="295" type="curve" smooth="yes"/>
      <point x="561" y="313"/>
      <point x="544" y="331"/>
      <point x="528" y="331" type="curve" smooth="yes"/>
      <point x="521" y="331"/>
      <point x="515" y="329"/>
    </contour>
    <contour>
      <point x="232" y="545" type="curve"/>
      <point x="322" y="528" type="line"/>
      <point x="306" y="494"/>
      <point x="288" y="460"/>
      <point x="268" y="426" type="curve"/>
      <point x="255" y="463"/>
      <point x="243" y="503"/>
    </contour>
  </outline>
</glyph>
<glyph name="u109BD" format="2">
  <advance width="483"/>
  <unicode hex="109BD"/>
  <outline>
    <contour>
      <point x="242" y="776" type="curve" smooth="yes"/>
      <point x="174" y="776"/>
      <point x="135" y="821"/>
      <point x="123" y="864" type="curve" smooth="yes"/>
      <point x="116" y="890"/>
      <point x="110" y="905"/>
      <point x="82" y="905" type="curve" smooth="yes"/>
      <point x="67" y="905"/>
      <point x="50" y="898"/>
      <point x="50" y="883" type="curve" smooth="yes"/>
      <point x="50" y="877"/>
      <point x="51" y="869"/>
      <point x="53" y="859" type="curve" smooth="yes"/>
      <point x="71" y="772"/>
      <point x="140" y="710"/>
      <point x="242" y="710" type="curve" smooth="yes"/>
      <point x="343" y="710"/>
      <point x="412" y="772"/>
      <point x="430" y="859" type="curve" smooth="yes"/>
      <point x="432" y="869"/>
      <point x="433" y="877"/>
      <point x="433" y="883" type="curve" smooth="yes"/>
      <point x="433" y="898"/>
      <point x="416" y="905"/>
      <point x="401" y="905" type="curve" smooth="yes"/>
      <point x="373" y="905"/>
      <point x="367" y="890"/>
      <point x="360" y="864" type="curve" smooth="yes"/>
      <point x="348" y="821"/>
      <point x="309" y="776"/>
    </contour>
    <contour>
      <point x="187" y="872" type="curve" smooth="yes"/>
      <point x="187" y="843"/>
      <point x="209" y="821"/>
      <point x="238" y="821" type="curve" smooth="yes"/>
      <point x="267" y="821"/>
      <point x="290" y="843"/>
      <point x="290" y="872" type="curve" smooth="yes"/>
      <point x="290" y="901"/>
      <point x="267" y="923"/>
      <point x="238" y="923" type="curve" smooth="yes"/>
      <point x="209" y="923"/>
      <point x="187" y="901"/>
    </contour>
  </outline>
</glyph>
<glyph name="u109BE" format="2">
  <advance width="452"/>
  <unicode hex="109BE"/>
  <outline>
    <contour>
      <point x="289" y="643" type="curve" smooth="yes"/>
      <point x="289" y="637"/>
      <point x="292" y="632"/>
      <point x="298" y="626" type="curve" smooth="yes"/>
      <point x="320" y="606"/>
      <point x="340" y="583"/>
      <point x="340" y="545" type="curve" smooth="yes"/>
      <point x="340" y="480"/>
      <point x="294" y="437"/>
      <point x="193" y="429" type="curve" smooth="yes"/>
      <point x="179" y="428" type="line"/>
      <point x="176" y="499"/>
      <point x="169" y="560"/>
      <point x="151" y="640" type="curve" smooth="yes"/>
      <point x="146" y="663"/>
      <point x="134" y="680"/>
      <point x="101" y="680" type="curve" smooth="yes"/>
      <point x="83" y="680"/>
      <point x="79" y="673"/>
      <point x="79" y="659" type="curve" smooth="yes"/>
      <point x="79" y="638"/>
      <point x="108" y="555"/>
      <point x="108" y="352" type="curve" smooth="yes"/>
      <point x="108" y="230"/>
      <point x="89" y="123"/>
      <point x="61" y="47" type="curve" smooth="yes"/>
      <point x="57" y="35"/>
      <point x="50" y="21"/>
      <point x="50" y="10" type="curve" smooth="yes"/>
      <point x="50" y="1"/>
      <point x="55" y="-8"/>
      <point x="76" y="-8" type="curve" smooth="yes"/>
      <point x="108" y="-8"/>
      <point x="116" y="12"/>
      <point x="126" y="37" type="curve" smooth="yes"/>
      <point x="150" y="99"/>
      <point x="179" y="234"/>
      <point x="180" y="359" type="curve"/>
      <point x="293" y="369"/>
      <point x="412" y="405"/>
      <point x="412" y="542" type="curve" smooth="yes"/>
      <point x="412" y="586"/>
      <point x="399" y="622"/>
      <point x="377" y="651" type="curve" smooth="yes"/>
      <point x="366" y="666"/>
      <point x="335" y="695"/>
      <point x="319" y="695" type="curve" smooth="yes"/>
      <point x="297" y="695"/>
      <point x="289" y="658"/>
    </contour>
  </outline>
</glyph>
<glyph name="u109BF" format="2">
  <advance width="854"/>
  <unicode hex="109BF"/>
  <outline>
    <contour>
      <point x="564" y="234" type="curve" smooth="yes"/>
      <point x="581" y="234"/>
      <point x="655" y="244"/>
      <point x="706" y="244" type="curve" smooth="yes"/>
      <point x="718" y="244"/>
      <point x="729" y="243"/>
      <point x="740" y="242" type="curve"/>
      <point x="742" y="241"/>
      <point x="743" y="239"/>
      <point x="744" y="237" type="curve"/>
      <point x="726" y="158"/>
      <point x="586" y="53"/>
      <point x="493" y="53" type="curve" smooth="yes"/>
      <point x="416" y="53"/>
      <point x="372" y="92"/>
      <point x="372" y="178" type="curve" smooth="yes"/>
      <point x="372" y="234"/>
      <point x="401" y="277"/>
      <point x="430" y="302" type="curve" smooth="yes"/>
      <point x="440" y="310"/>
      <point x="442" y="320"/>
      <point x="442" y="328" type="curve" smooth="yes"/>
      <point x="442" y="348"/>
      <point x="426" y="362"/>
      <point x="411" y="362" type="curve" smooth="yes"/>
      <point x="408" y="362"/>
      <point x="399" y="360"/>
      <point x="394" y="357" type="curve" smooth="yes"/>
      <point x="334" y="320"/>
      <point x="300" y="252"/>
      <point x="300" y="177" type="curve" smooth="yes"/>
      <point x="300" y="46"/>
      <point x="393" y="-8"/>
      <point x="494" y="-8" type="curve" smooth="yes"/>
      <point x="535" y="-8"/>
      <point x="575" y="7"/>
      <point x="589" y="13" type="curve" smooth="yes"/>
      <point x="653" y="39"/>
      <point x="814" y="142"/>
      <point x="814" y="234" type="curve" smooth="yes"/>
      <point x="814" y="258"/>
      <point x="803" y="281"/>
      <point x="777" y="302" type="curve" smooth="yes"/>
      <point x="770" y="308"/>
      <point x="744" y="310"/>
      <point x="713" y="310" type="curve" smooth="yes"/>
      <point x="646" y="310"/>
      <point x="567" y="302"/>
      <point x="556" y="300" type="curve" smooth="yes"/>
      <point x="539" y="297"/>
      <point x="533" y="282"/>
      <point x="533" y="270" type="curve" smooth="yes"/>
      <point x="533" y="250"/>
      <point x="548" y="234"/>
    </contour>
    <contour>
      <point x="187" y="29" type="curve"/>
      <point x="187" y="510" type="line" smooth="yes"/>
      <point x="187" y="536"/>
      <point x="170" y="549"/>
      <point x="152" y="549" type="curve" smooth="yes"/>
      <point x="135" y="549"/>
      <point x="117" y="536"/>
      <point x="117" y="510" type="curve" smooth="yes"/>
      <point x="117" y="29" type="line" smooth="yes"/>
      <point x="117" y="3"/>
      <point x="135" y="-10"/>
      <point x="152" y="-10" type="curve" smooth="yes"/>
      <point x="170" y="-10"/>
      <point x="187" y="3"/>
    </contour>
    <contour>
      <point x="62" y="563" type="curve" smooth="yes"/>
      <point x="134" y="630"/>
      <point x="196" y="675"/>
      <point x="276" y="720" type="curve" smooth="yes"/>
      <point x="291" y="729"/>
      <point x="295" y="741"/>
      <point x="295" y="750" type="curve" smooth="yes"/>
      <point x="295" y="766"/>
      <point x="279" y="779"/>
      <point x="267" y="779" type="curve" smooth="yes"/>
      <point x="261" y="779"/>
      <point x="255" y="776"/>
      <point x="246" y="771" type="curve" smooth="yes"/>
      <point x="151" y="717"/>
      <point x="53" y="639"/>
      <point x="24" y="605" type="curve" smooth="yes"/>
      <point x="18" y="599"/>
      <point x="15" y="589"/>
      <point x="15" y="583" type="curve" smooth="yes"/>
      <point x="15" y="569"/>
      <point x="33" y="556"/>
      <point x="47" y="556" type="curve" smooth="yes"/>
      <point x="52" y="556"/>
      <point x="57" y="558"/>
    </contour>
  </outline>
</glyph>
<glyph name="u109C1" format="2">
  <advance width="440"/>
  <unicode hex="109C1"/>
  <outline>
    <contour>
      <point x="170" y="29" type="curve" smooth="yes"/>
      <point x="170" y="641" type="line" smooth="yes"/>
      <point x="170" y="667"/>
      <point x="153" y="680"/>
      <point x="135" y="680" type="curve" smooth="yes"/>
      <point x="118" y="680"/>
      <point x="100" y="667"/>
      <point x="100" y="641" type="curve" smooth="yes"/>
      <point x="100" y="29" type="line" smooth="yes"/>
      <point x="100" y="3"/>
      <point x="118" y="-10"/>
      <point x="135" y="-10" type="curve" smooth="yes"/>
      <point x="153" y="-10"/>
      <point x="170" y="3"/>
    </contour>
    <contour>
      <point x="340" y="29" type="curve" smooth="yes"/>
      <point x="340" y="641" type="line" smooth="yes"/>
      <point x="340" y="667"/>
      <point x="323" y="680"/>
      <point x="305" y="680" type="curve" smooth="yes"/>
      <point x="288" y="680"/>
      <point x="270" y="667"/>
      <point x="270" y="641" type="curve" smooth="yes"/>
      <point x="270" y="29" type="line" smooth="yes"/>
      <point x="270" y="3"/>
      <point x="288" y="-10"/>
      <point x="305" y="-10" type="curve" smooth="yes"/>
      <point x="323" y="-10"/>
      <point x="340" y="3"/>
    </contour>
  </outline>
</glyph>
<glyph name="u109C2" format="2">
  <advance width="610"/>
  <unicode hex="109C2"/>
  <outline>
    <contour>
      <point x="170" y="29" type="curve" smooth="yes"/>
      <point x="170" y="641" type="line" smooth="yes"/>
      <point x="170" y="667"/>
      <point x="153" y="680"/>
      <point x="135" y="680" type="curve" smooth="yes"/>
      <point x="118" y="680"/>
      <point x="100" y="667"/>
      <point x="100" y="641" type="curve" smooth="yes"/>
      <point x="100" y="29" type="line" smooth="yes"/>
      <point x="100" y="3"/>
      <point x="118" y="-10"/>
      <point x="135" y="-10" type="curve" smooth="yes"/>
      <point x="153" y="-10"/>
      <point x="170" y="3"/>
    </contour>
    <contour>
      <point x="340" y="29" type="curve" smooth="yes"/>
      <point x="340" y="641" type="line" smooth="yes"/>
      <point x="340" y="667"/>
      <point x="323" y="680"/>
      <point x="305" y="680" type="curve" smooth="yes"/>
      <point x="288" y="680"/>
      <point x="270" y="667"/>
      <point x="270" y="641" type="curve" smooth="yes"/>
      <point x="270" y="29" type="line" smooth="yes"/>
      <point x="270" y="3"/>
      <point x="288" y="-10"/>
      <point x="305" y="-10" type="curve" smooth="yes"/>
      <point x="323" y="-10"/>
      <point x="340" y="3"/>
    </contour>
    <contour>
      <point x="510" y="29" type="curve" smooth="yes"/>
      <point x="510" y="641" type="line" smooth="yes"/>
      <point x="510" y="667"/>
      <point x="493" y="680"/>
      <point x="475" y="680" type="curve" smooth="yes"/>
      <point x="458" y="680"/>
      <point x="440" y="667"/>
      <point x="440" y="641" type="curve" smooth="yes"/>
      <point x="440" y="29" type="line" smooth="yes"/>
      <point x="440" y="3"/>
      <point x="458" y="-10"/>
      <point x="475" y="-10" type="curve" smooth="yes"/>
      <point x="493" y="-10"/>
      <point x="510" y="3"/>
    </contour>
  </outline>
</glyph>
<glyph name="u109C6" format="2">
  <advance width="1260"/>
  <unicode hex="109C6"/>
  <outline>
    <contour>
      <point x="1194" y="65" type="curve" smooth="yes"/>
      <point x="470" y="187" type="line"/>
      <point x="506" y="213"/>
      <point x="535" y="249"/>
      <point x="535" y="301" type="curve" smooth="yes"/>
      <point x="535" y="388"/>
      <point x="470" y="431"/>
      <point x="401" y="431" type="curve" smooth="yes"/>
      <point x="396" y="431" type="line"/>
      <point x="408" y="450"/>
      <point x="418" y="469"/>
      <point x="427" y="487" type="curve" smooth="yes"/>
      <point x="429" y="492"/>
      <point x="430" y="497"/>
      <point x="430" y="501" type="curve" smooth="yes"/>
      <point x="430" y="521"/>
      <point x="413" y="534"/>
      <point x="396" y="534" type="curve" smooth="yes"/>
      <point x="385" y="534"/>
      <point x="377" y="530"/>
      <point x="372" y="520" type="curve" smooth="yes"/>
      <point x="304" y="390"/>
      <point x="161" y="243"/>
      <point x="44" y="163" type="curve" smooth="yes"/>
      <point x="37" y="158"/>
      <point x="30" y="148"/>
      <point x="30" y="141" type="curve" smooth="yes"/>
      <point x="30" y="124"/>
      <point x="44" y="110"/>
      <point x="62" y="110" type="curve" smooth="yes"/>
      <point x="69" y="110"/>
      <point x="77" y="113"/>
      <point x="84" y="118" type="curve" smooth="yes"/>
      <point x="163" y="167"/>
      <point x="261" y="256"/>
      <point x="336" y="348" type="curve"/>
      <point x="351" y="358"/>
      <point x="367" y="362"/>
      <point x="386" y="362" type="curve" smooth="yes"/>
      <point x="443" y="362"/>
      <point x="463" y="331"/>
      <point x="463" y="305" type="curve" smooth="yes"/>
      <point x="463" y="236"/>
      <point x="403" y="212"/>
      <point x="373" y="208" type="curve" smooth="yes"/>
      <point x="358" y="206"/>
      <point x="343" y="185"/>
      <point x="343" y="167" type="curve" smooth="yes"/>
      <point x="343" y="153"/>
      <point x="351" y="141"/>
      <point x="368" y="138" type="curve" smooth="yes"/>
      <point x="1169" y="5" type="line" smooth="yes"/>
      <point x="1173" y="4"/>
      <point x="1191" y="1"/>
      <point x="1200" y="1" type="curve" smooth="yes"/>
      <point x="1217" y="1"/>
      <point x="1230" y="16"/>
      <point x="1230" y="31" type="curve" smooth="yes"/>
      <point x="1230" y="46"/>
      <point x="1218" y="61"/>
    </contour>
  </outline>
</glyph>
<glyph name="u109C8" format="2">
  <advance width="375"/>
  <unicode hex="109C8"/>
  <outline>
    <contour>
      <point x="160" y="29" type="curve" smooth="yes"/>
      <point x="160" y="390" type="line"/>
      <point x="177" y="390" type="line" smooth="yes"/>
      <point x="306" y="390"/>
      <point x="345" y="471"/>
      <point x="345" y="542" type="curve" smooth="yes"/>
      <point x="345" y="615"/>
      <point x="290" y="684"/>
      <point x="178" y="684" type="curve" smooth="yes"/>
      <point x="146" y="684"/>
      <point x="126" y="679"/>
      <point x="112" y="674" type="curve" smooth="yes"/>
      <point x="102" y="670"/>
      <point x="98" y="660"/>
      <point x="98" y="648" type="curve" smooth="yes"/>
      <point x="98" y="630"/>
      <point x="107" y="610"/>
      <point x="119" y="610" type="curve" smooth="yes"/>
      <point x="129" y="610"/>
      <point x="143" y="614"/>
      <point x="155" y="615" type="curve" smooth="yes"/>
      <point x="163" y="616"/>
      <point x="172" y="616"/>
      <point x="177" y="616" type="curve" smooth="yes"/>
      <point x="273" y="616"/>
      <point x="273" y="559"/>
      <point x="273" y="532" type="curve" smooth="yes"/>
      <point x="273" y="509"/>
      <point x="254" y="455"/>
      <point x="165" y="455" type="curve" smooth="yes"/>
      <point x="147" y="455"/>
      <point x="133" y="459"/>
      <point x="119" y="459" type="curve" smooth="yes"/>
      <point x="96" y="459"/>
      <point x="90" y="440"/>
      <point x="90" y="417" type="curve" smooth="yes"/>
      <point x="90" y="29" type="line" smooth="yes"/>
      <point x="90" y="3"/>
      <point x="108" y="-10"/>
      <point x="125" y="-10" type="curve" smooth="yes"/>
      <point x="143" y="-10"/>
      <point x="160" y="3"/>
    </contour>
  </outline>
</glyph>
<glyph name="u109CB" format="2">
  <advance width="873"/>
  <unicode hex="109CB"/>
  <outline>
    <contour>
      <point x="350" y="285" type="line"/>
      <point x="48" y="52" type="line" smooth="yes"/>
      <point x="35" y="42"/>
      <point x="31" y="33"/>
      <point x="31" y="20" type="curve" smooth="yes"/>
      <point x="31" y="3"/>
      <point x="44" y="-11"/>
      <point x="64" y="-11" type="curve" smooth="yes"/>
      <point x="74" y="-11"/>
      <point x="79" y="-9"/>
      <point x="89" y="-2" type="curve" smooth="yes"/>
      <point x="403" y="241" type="line"/>
      <point x="784" y="-72" type="line" smooth="yes"/>
      <point x="793" y="-80"/>
      <point x="803" y="-82"/>
      <point x="810" y="-82" type="curve" smooth="yes"/>
      <point x="829" y="-82"/>
      <point x="843" y="-68"/>
      <point x="843" y="-52" type="curve" smooth="yes"/>
      <point x="843" y="-41"/>
      <point x="839" y="-29"/>
      <point x="828" y="-20" type="curve" smooth="yes"/>
      <point x="458" y="284" type="line"/>
      <point x="727" y="492" type="line" smooth="yes"/>
      <point x="740" y="502"/>
      <point x="745" y="513"/>
      <point x="745" y="524" type="curve" smooth="yes"/>
      <point x="745" y="543"/>
      <point x="729" y="554"/>
      <point x="712" y="554" type="curve" smooth="yes"/>
      <point x="703" y="554"/>
      <point x="694" y="551"/>
      <point x="687" y="545" type="curve" smooth="yes"/>
      <point x="405" y="327" type="line"/>
      <point x="96" y="582" type="line" smooth="yes"/>
      <point x="87" y="590"/>
      <point x="76" y="592"/>
      <point x="68" y="592" type="curve" smooth="yes"/>
      <point x="51" y="592"/>
      <point x="37" y="580"/>
      <point x="37" y="561" type="curve" smooth="yes"/>
      <point x="37" y="551"/>
      <point x="42" y="540"/>
      <point x="53" y="531" type="curve" smooth="yes"/>
    </contour>
  </outline>
</glyph>
<glyph name="u109CE" format="2">
  <advance width="1476"/>
  <unicode hex="109CE"/>
  <outline>
    <contour>
      <point x="1250" y="280" type="curve" smooth="yes"/>
      <point x="1241" y="280"/>
      <point x="1234" y="276"/>
      <point x="1230" y="264" type="curve" smooth="yes"/>
      <point x="1220" y="230" type="line" smooth="yes"/>
      <point x="1183" y="105"/>
      <point x="1164" y="65"/>
      <point x="1060" y="65" type="curve" smooth="yes"/>
      <point x="821" y="65"/>
      <point x="256" y="89"/>
      <point x="83" y="125" type="curve" smooth="yes"/>
      <point x="77" y="126"/>
      <point x="72" y="127"/>
      <point x="68" y="127" type="curve" smooth="yes"/>
      <point x="44" y="127"/>
      <point x="30" y="112"/>
      <point x="30" y="95" type="curve" smooth="yes"/>
      <point x="30" y="78"/>
      <point x="46" y="65"/>
      <point x="82" y="57" type="curve" smooth="yes"/>
      <point x="134" y="46"/>
      <point x="422" y="20"/>
      <point x="688" y="8" type="curve" smooth="yes"/>
      <point x="838" y="1"/>
      <point x="979" y="-3"/>
      <point x="1063" y="-3" type="curve" smooth="yes"/>
      <point x="1209" y="-3"/>
      <point x="1238" y="59"/>
      <point x="1285" y="207" type="curve" smooth="yes"/>
      <point x="1289" y="221"/>
      <point x="1297" y="243"/>
      <point x="1297" y="256" type="curve" smooth="yes"/>
      <point x="1297" y="277"/>
      <point x="1263" y="280"/>
    </contour>
    <contour>
      <point x="1338" y="10" type="curve"/>
      <point x="1363" y="63"/>
      <point x="1399" y="137"/>
      <point x="1440" y="208" type="curve" smooth="yes"/>
      <point x="1443" y="213"/>
      <point x="1446" y="221"/>
      <point x="1446" y="230" type="curve" smooth="yes"/>
      <point x="1446" y="252"/>
      <point x="1423" y="257"/>
      <point x="1408" y="257" type="curve" smooth="yes"/>
      <point x="1396" y="257"/>
      <point x="1384" y="250"/>
      <point x="1375" y="232" type="curve" smooth="yes"/>
      <point x="1293" y="68" type="line" smooth="yes"/>
      <point x="1282" y="46"/>
      <point x="1268" y="27"/>
      <point x="1268" y="7" type="curve" smooth="yes"/>
      <point x="1268" y="-19"/>
      <point x="1289" y="-43"/>
      <point x="1312" y="-61" type="curve" smooth="yes"/>
      <point x="1330" y="-75"/>
      <point x="1368" y="-97"/>
      <point x="1387" y="-97" type="curve" smooth="yes"/>
      <point x="1408" y="-97"/>
      <point x="1420" y="-80"/>
      <point x="1420" y="-66" type="curve" smooth="yes"/>
      <point x="1420" y="-57"/>
      <point x="1415" y="-47"/>
      <point x="1405" y="-43" type="curve" smooth="yes"/>
      <point x="1365" y="-26"/>
      <point x="1342" y="-4"/>
    </contour>
  </outline>
</glyph>
<glyph name="u109CF" format="2">
  <advance width="1377"/>
  <unicode hex="109CF"/>
  <outline>
    <contour>
      <point x="1010" y="303" type="curve" smooth="yes"/>
      <point x="1111" y="303"/>
      <point x="1270" y="296"/>
      <point x="1270" y="182" type="curve" smooth="yes"/>
      <point x="1270" y="65"/>
      <point x="1156" y="59"/>
      <point x="1067" y="59" type="curve" smooth="yes"/>
      <point x="939" y="59"/>
      <point x="888" y="65"/>
      <point x="807" y="70" type="curve" smooth="yes"/>
      <point x="737" y="74"/>
      <point x="640" y="82"/>
      <point x="517" y="82" type="curve" smooth="yes"/>
      <point x="399" y="82"/>
      <point x="313" y="43"/>
      <point x="250" y="-13" type="curve" smooth="yes"/>
      <point x="59" y="-183" type="line" smooth="yes"/>
      <point x="39" y="-201"/>
      <point x="30" y="-214"/>
      <point x="30" y="-229" type="curve" smooth="yes"/>
      <point x="30" y="-244"/>
      <point x="46" y="-259"/>
      <point x="61" y="-259" type="curve" smooth="yes"/>
      <point x="73" y="-259"/>
      <point x="83" y="-253"/>
      <point x="102" y="-236" type="curve" smooth="yes"/>
      <point x="287" y="-70" type="line" smooth="yes"/>
      <point x="344" y="-19"/>
      <point x="421" y="14"/>
      <point x="516" y="14" type="curve" smooth="yes"/>
      <point x="601" y="14"/>
      <point x="666" y="12"/>
      <point x="723" y="8" type="curve" smooth="yes"/>
      <point x="892" y="-4" type="line"/>
      <point x="829" y="-179" type="line" smooth="yes"/>
      <point x="827" y="-185"/>
      <point x="826" y="-191"/>
      <point x="826" y="-196" type="curve" smooth="yes"/>
      <point x="826" y="-217"/>
      <point x="843" y="-230"/>
      <point x="860" y="-230" type="curve" smooth="yes"/>
      <point x="874" y="-230"/>
      <point x="887" y="-222"/>
      <point x="894" y="-203" type="curve" smooth="yes"/>
      <point x="966" y="-7" type="line"/>
      <point x="997" y="-8"/>
      <point x="1031" y="-9"/>
      <point x="1070" y="-9" type="curve" smooth="yes"/>
      <point x="1251" y="-9"/>
      <point x="1347" y="40"/>
      <point x="1347" y="181" type="curve" smooth="yes"/>
      <point x="1347" y="326"/>
      <point x="1230" y="375"/>
      <point x="1016" y="375" type="curve" smooth="yes"/>
      <point x="996" y="375"/>
      <point x="984" y="356"/>
      <point x="984" y="337" type="curve" smooth="yes"/>
      <point x="984" y="318"/>
      <point x="995" y="303"/>
    </contour>
  </outline>
</glyph>
<glyph name="u109D3" format="2">
  <advance width="1552"/>
  <unicode hex="109D3"/>
  <outline>
    <contour>
      <point x="1404" y="221" type="curve"/>
      <point x="1363" y="97"/>
      <point x="1230" y="65"/>
      <point x="1125" y="65" type="curve" smooth="yes"/>
      <point x="1000" y="65"/>
      <point x="881" y="71"/>
      <point x="758" y="76" type="curve" smooth="yes"/>
      <point x="646" y="81"/>
      <point x="530" y="86"/>
      <point x="404" y="86" type="curve" smooth="yes"/>
      <point x="273" y="86"/>
      <point x="156" y="62"/>
      <point x="45" y="3" type="curve" smooth="yes"/>
      <point x="35" y="-2"/>
      <point x="30" y="-15"/>
      <point x="30" y="-27" type="curve" smooth="yes"/>
      <point x="30" y="-43"/>
      <point x="39" y="-58"/>
      <point x="56" y="-58" type="curve" smooth="yes"/>
      <point x="61" y="-58"/>
      <point x="66" y="-57"/>
      <point x="72" y="-54" type="curve" smooth="yes"/>
      <point x="187" y="-2"/>
      <point x="283" y="18"/>
      <point x="403" y="18" type="curve" smooth="yes"/>
      <point x="519" y="18"/>
      <point x="634" y="14"/>
      <point x="747" y="9" type="curve" smooth="yes"/>
      <point x="876" y="3"/>
      <point x="1003" y="-3"/>
      <point x="1128" y="-3" type="curve" smooth="yes"/>
      <point x="1274" y="-3"/>
      <point x="1421" y="50"/>
      <point x="1469" y="198" type="curve" smooth="yes"/>
      <point x="1517" y="346" type="line" smooth="yes"/>
      <point x="1520" y="356"/>
      <point x="1522" y="365"/>
      <point x="1522" y="374" type="curve" smooth="yes"/>
      <point x="1522" y="389"/>
      <point x="1515" y="401"/>
      <point x="1491" y="401" type="curve" smooth="yes"/>
      <point x="1473" y="401"/>
      <point x="1460" y="389"/>
      <point x="1453" y="369" type="curve" smooth="yes"/>
      <point x="1435" y="316" type="line" smooth="yes"/>
      <point x="1426" y="289"/>
      <point x="1399" y="275"/>
      <point x="1363" y="275" type="curve" smooth="yes"/>
      <point x="1333" y="275"/>
      <point x="1314" y="292"/>
      <point x="1314" y="327" type="curve" smooth="yes"/>
      <point x="1314" y="348"/>
      <point x="1320" y="369"/>
      <point x="1320" y="384" type="curve" smooth="yes"/>
      <point x="1320" y="395"/>
      <point x="1312" y="400"/>
      <point x="1297" y="400" type="curve" smooth="yes"/>
      <point x="1275" y="400"/>
      <point x="1265" y="387"/>
      <point x="1261" y="378" type="curve" smooth="yes"/>
      <point x="1253" y="357"/>
      <point x="1250" y="334"/>
      <point x="1250" y="313" type="curve" smooth="yes"/>
      <point x="1250" y="263"/>
      <point x="1277" y="217"/>
      <point x="1358" y="217" type="curve" smooth="yes"/>
      <point x="1375" y="217"/>
      <point x="1390" y="218"/>
    </contour>
  </outline>
</glyph>
<glyph name="u109D4" format="2">
  <advance width="1552"/>
  <unicode hex="109D4"/>
  <outline>
    <contour>
      <point x="1260" y="381" type="curve" smooth="yes"/>
      <point x="1249" y="330"/>
      <point x="1232" y="275"/>
      <point x="1167" y="275" type="curve" smooth="yes"/>
      <point x="1137" y="275"/>
      <point x="1118" y="292"/>
      <point x="1118" y="327" type="curve" smooth="yes"/>
      <point x="1118" y="348"/>
      <point x="1124" y="369"/>
      <point x="1124" y="384" type="curve" smooth="yes"/>
      <point x="1124" y="395"/>
      <point x="1116" y="400"/>
      <point x="1101" y="400" type="curve" smooth="yes"/>
      <point x="1079" y="400"/>
      <point x="1069" y="387"/>
      <point x="1065" y="378" type="curve" smooth="yes"/>
      <point x="1057" y="357"/>
      <point x="1054" y="334"/>
      <point x="1054" y="313" type="curve" smooth="yes"/>
      <point x="1054" y="263"/>
      <point x="1081" y="217"/>
      <point x="1162" y="217" type="curve" smooth="yes"/>
      <point x="1213" y="217"/>
      <point x="1246" y="231"/>
      <point x="1268" y="251" type="curve"/>
      <point x="1284" y="230"/>
      <point x="1313" y="217"/>
      <point x="1357" y="217" type="curve" smooth="yes"/>
      <point x="1375" y="217"/>
      <point x="1390" y="218"/>
      <point x="1404" y="221" type="curve"/>
      <point x="1363" y="97"/>
      <point x="1230" y="65"/>
      <point x="1125" y="65" type="curve" smooth="yes"/>
      <point x="1000" y="65"/>
      <point x="881" y="71"/>
      <point x="758" y="76" type="curve" smooth="yes"/>
      <point x="646" y="81"/>
      <point x="530" y="86"/>
      <point x="404" y="86" type="curve" smooth="yes"/>
      <point x="273" y="86"/>
      <point x="156" y="62"/>
      <point x="45" y="3" type="curve" smooth="yes"/>
      <point x="35" y="-2"/>
      <point x="30" y="-15"/>
      <point x="30" y="-27" type="curve" smooth="yes"/>
      <point x="30" y="-43"/>
      <point x="39" y="-58"/>
      <point x="56" y="-58" type="curve" smooth="yes"/>
      <point x="61" y="-58"/>
      <point x="66" y="-57"/>
      <point x="72" y="-54" type="curve" smooth="yes"/>
      <point x="187" y="-2"/>
      <point x="283" y="18"/>
      <point x="403" y="18" type="curve" smooth="yes"/>
      <point x="516" y="18"/>
      <point x="628" y="14"/>
      <point x="738" y="9" type="curve" smooth="yes"/>
      <point x="870" y="3"/>
      <point x="1000" y="-3"/>
      <point x="1128" y="-3" type="curve" smooth="yes"/>
      <point x="1274" y="-3"/>
      <point x="1421" y="50"/>
      <point x="1469" y="198" type="curve" smooth="yes"/>
      <point x="1517" y="346" type="line" smooth="yes"/>
      <point x="1520" y="356"/>
      <point x="1522" y="365"/>
      <point x="1522" y="374" type="curve" smooth="yes"/>
      <point x="1522" y="389"/>
      <point x="1515" y="401"/>
      <point x="1491" y="401" type="curve" smooth="yes"/>
      <point x="1473" y="401"/>
      <point x="1460" y="389"/>
      <point x="1453" y="369" type="curve" smooth="yes"/>
      <point x="1435" y="315" type="line" smooth="yes"/>
      <point x="1426" y="289"/>
      <point x="1398" y="275"/>
      <point x="1362" y="275" type="curve" smooth="yes"/>
      <point x="1332" y="275"/>
      <point x="1313" y="292"/>
      <point x="1313" y="327" type="curve" smooth="yes"/>
      <point x="1313" y="336" type="line"/>
      <point x="1323" y="369"/>
      <point x="1327" y="375"/>
      <point x="1327" y="384" type="curve" smooth="yes"/>
      <point x="1327" y="401"/>
      <point x="1311" y="401"/>
      <point x="1296" y="401" type="curve" smooth="yes"/>
      <point x="1265" y="401"/>
      <point x="1262" y="389"/>
    </contour>
  </outline>
</glyph>
<glyph name="u109D7" format="2">
  <advance width="1552"/>
  <unicode hex="109D7"/>
  <outline>
    <contour>
      <point x="1453" y="369" type="curve" smooth="yes"/>
      <point x="1404" y="221" type="line" smooth="yes"/>
      <point x="1363" y="97"/>
      <point x="1230" y="65"/>
      <point x="1125" y="65" type="curve" smooth="yes"/>
      <point x="1014" y="65"/>
      <point x="908" y="69"/>
      <point x="800" y="74" type="curve" smooth="yes"/>
      <point x="675" y="80"/>
      <point x="546" y="86"/>
      <point x="404" y="86" type="curve" smooth="yes"/>
      <point x="273" y="86"/>
      <point x="156" y="62"/>
      <point x="45" y="3" type="curve" smooth="yes"/>
      <point x="35" y="-2"/>
      <point x="30" y="-15"/>
      <point x="30" y="-27" type="curve" smooth="yes"/>
      <point x="30" y="-43"/>
      <point x="39" y="-58"/>
      <point x="56" y="-58" type="curve" smooth="yes"/>
      <point x="61" y="-58"/>
      <point x="66" y="-57"/>
      <point x="72" y="-54" type="curve" smooth="yes"/>
      <point x="187" y="-2"/>
      <point x="283" y="18"/>
      <point x="403" y="18" type="curve" smooth="yes"/>
      <point x="530" y="18"/>
      <point x="656" y="12"/>
      <point x="780" y="7" type="curve" smooth="yes"/>
      <point x="898" y="2"/>
      <point x="1014" y="-3"/>
      <point x="1128" y="-3" type="curve" smooth="yes"/>
      <point x="1274" y="-3"/>
      <point x="1421" y="50"/>
      <point x="1469" y="198" type="curve" smooth="yes"/>
      <point x="1517" y="346" type="line" smooth="yes"/>
      <point x="1520" y="356"/>
      <point x="1522" y="365"/>
      <point x="1522" y="374" type="curve" smooth="yes"/>
      <point x="1522" y="389"/>
      <point x="1515" y="401"/>
      <point x="1491" y="401" type="curve" smooth="yes"/>
      <point x="1473" y="401"/>
      <point x="1460" y="389"/>
    </contour>
    <contour>
      <point x="894" y="220" type="curve"/>
      <point x="1027" y="338" type="line" smooth="yes"/>
      <point x="1033" y="344"/>
      <point x="1036" y="350"/>
      <point x="1036" y="357" type="curve" smooth="yes"/>
      <point x="1036" y="373"/>
      <point x="1022" y="388"/>
      <point x="1009" y="388" type="curve" smooth="yes"/>
      <point x="1000" y="388"/>
      <point x="993" y="381"/>
      <point x="990" y="378" type="curve" smooth="yes"/>
      <point x="807" y="215" type="line" smooth="yes"/>
      <point x="802" y="210"/>
      <point x="795" y="201"/>
      <point x="795" y="187" type="curve" smooth="yes"/>
      <point x="795" y="170"/>
      <point x="807" y="153"/>
      <point x="828" y="152" type="curve"/>
      <point x="891" y="165"/>
      <point x="949" y="171"/>
      <point x="1005" y="171" type="curve" smooth="yes"/>
      <point x="1105" y="171"/>
      <point x="1217" y="141"/>
      <point x="1228" y="141" type="curve" smooth="yes"/>
      <point x="1243" y="141"/>
      <point x="1255" y="154"/>
      <point x="1255" y="167" type="curve" smooth="yes"/>
      <point x="1255" y="180"/>
      <point x="1248" y="197"/>
      <point x="1228" y="203" type="curve" smooth="yes"/>
      <point x="1176" y="218"/>
      <point x="1086" y="229"/>
      <point x="1012" y="229" type="curve" smooth="yes"/>
      <point x="973" y="229"/>
      <point x="934" y="226"/>
    </contour>
    <contour>
      <point x="763" y="246" type="curve" smooth="yes"/>
      <point x="949" y="412" type="line" smooth="yes"/>
      <point x="955" y="417"/>
      <point x="957" y="424"/>
      <point x="957" y="430" type="curve" smooth="yes"/>
      <point x="957" y="447"/>
      <point x="943" y="462"/>
      <point x="931" y="462" type="curve" smooth="yes"/>
      <point x="920" y="462"/>
      <point x="914" y="453"/>
      <point x="911" y="451" type="curve" smooth="yes"/>
      <point x="725" y="286" type="line" smooth="yes"/>
      <point x="720" y="281"/>
      <point x="717" y="275"/>
      <point x="717" y="268" type="curve" smooth="yes"/>
      <point x="717" y="253"/>
      <point x="728" y="238"/>
      <point x="743" y="238" type="curve" smooth="yes"/>
      <point x="750" y="238"/>
      <point x="757" y="241"/>
    </contour>
    <contour>
      <point x="707" y="331" type="curve" smooth="yes"/>
      <point x="715" y="331"/>
      <point x="721" y="333"/>
      <point x="727" y="339" type="curve" smooth="yes"/>
      <point x="862" y="458" type="line" smooth="yes"/>
      <point x="868" y="464"/>
      <point x="871" y="470"/>
      <point x="871" y="477" type="curve" smooth="yes"/>
      <point x="871" y="493"/>
      <point x="857" y="507"/>
      <point x="845" y="507" type="curve" smooth="yes"/>
      <point x="835" y="507"/>
      <point x="828" y="500"/>
      <point x="824" y="497" type="curve" smooth="yes"/>
      <point x="689" y="378" type="line" smooth="yes"/>
      <point x="684" y="374"/>
      <point x="681" y="368"/>
      <point x="681" y="361" type="curve" smooth="yes"/>
      <point x="681" y="347"/>
      <point x="692" y="331"/>
    </contour>
  </outline>
</glyph>
<glyph name="u109D9" format="2">
  <advance width="1552"/>
  <unicode hex="109D9"/>
  <outline>
    <contour>
      <point x="1280" y="501" type="curve" smooth="yes"/>
      <point x="1265" y="501"/>
      <point x="1255" y="495"/>
      <point x="1255" y="485" type="curve" smooth="yes"/>
      <point x="1255" y="473"/>
      <point x="1262" y="447"/>
      <point x="1262" y="429" type="curve" smooth="yes"/>
      <point x="1262" y="388"/>
      <point x="1246" y="360"/>
      <point x="1220" y="333" type="curve" smooth="yes"/>
      <point x="1075" y="187" type="line" smooth="yes"/>
      <point x="1068" y="180"/>
      <point x="1064" y="171"/>
      <point x="1064" y="164" type="curve" smooth="yes"/>
      <point x="1064" y="148"/>
      <point x="1078" y="137"/>
      <point x="1094" y="137" type="curve" smooth="yes"/>
      <point x="1101" y="137"/>
      <point x="1112" y="140"/>
      <point x="1125" y="154" type="curve" smooth="yes"/>
      <point x="1284" y="321" type="line" smooth="yes"/>
      <point x="1312" y="350"/>
      <point x="1323" y="393"/>
      <point x="1323" y="432" type="curve" smooth="yes"/>
      <point x="1323" y="453"/>
      <point x="1319" y="468"/>
      <point x="1312" y="485" type="curve" smooth="yes"/>
      <point x="1308" y="496"/>
      <point x="1293" y="501"/>
    </contour>
    <contour>
      <point x="1176" y="501" type="curve" smooth="yes"/>
      <point x="1155" y="501"/>
      <point x="1144" y="495"/>
      <point x="1144" y="481" type="curve" smooth="yes"/>
      <point x="1144" y="473" type="line" smooth="yes"/>
      <point x="1144" y="432"/>
      <point x="1129" y="404"/>
      <point x="1102" y="377" type="curve" smooth="yes"/>
      <point x="977" y="249" type="line" smooth="yes"/>
      <point x="970" y="242"/>
      <point x="966" y="233"/>
      <point x="966" y="226" type="curve" smooth="yes"/>
      <point x="966" y="211"/>
      <point x="980" y="199"/>
      <point x="996" y="199" type="curve" smooth="yes"/>
      <point x="1003" y="199"/>
      <point x="1013" y="202"/>
      <point x="1027" y="216" type="curve" smooth="yes"/>
      <point x="1166" y="364" type="line" smooth="yes"/>
      <point x="1192" y="392"/>
      <point x="1205" y="431"/>
      <point x="1205" y="481" type="curve" smooth="yes"/>
      <point x="1205" y="496"/>
      <point x="1189" y="501"/>
    </contour>
    <contour>
      <point x="1453" y="369" type="curve" smooth="yes"/>
      <point x="1404" y="221" type="line" smooth="yes"/>
      <point x="1363" y="97"/>
      <point x="1230" y="65"/>
      <point x="1125" y="65" type="curve" smooth="yes"/>
      <point x="1014" y="65"/>
      <point x="907" y="69"/>
      <point x="798" y="74" type="curve" smooth="yes"/>
      <point x="673" y="80"/>
      <point x="545" y="86"/>
      <point x="404" y="86" type="curve" smooth="yes"/>
      <point x="273" y="86"/>
      <point x="156" y="62"/>
      <point x="45" y="3" type="curve" smooth="yes"/>
      <point x="35" y="-2"/>
      <point x="30" y="-15"/>
      <point x="30" y="-27" type="curve" smooth="yes"/>
      <point x="30" y="-43"/>
      <point x="39" y="-58"/>
      <point x="56" y="-58" type="curve" smooth="yes"/>
      <point x="61" y="-58"/>
      <point x="66" y="-57"/>
      <point x="72" y="-54" type="curve" smooth="yes"/>
      <point x="187" y="-2"/>
      <point x="283" y="18"/>
      <point x="403" y="18" type="curve" smooth="yes"/>
      <point x="532" y="18"/>
      <point x="660" y="12"/>
      <point x="786" y="7" type="curve" smooth="yes"/>
      <point x="902" y="2"/>
      <point x="1016" y="-3"/>
      <point x="1128" y="-3" type="curve" smooth="yes"/>
      <point x="1274" y="-3"/>
      <point x="1421" y="50"/>
      <point x="1469" y="198" type="curve" smooth="yes"/>
      <point x="1517" y="346" type="line" smooth="yes"/>
      <point x="1520" y="356"/>
      <point x="1522" y="365"/>
      <point x="1522" y="374" type="curve" smooth="yes"/>
      <point x="1522" y="389"/>
      <point x="1515" y="401"/>
      <point x="1491" y="401" type="curve" smooth="yes"/>
      <point x="1473" y="401"/>
      <point x="1460" y="389"/>
    </contour>
  </outline>
</glyph>
<glyph name="u109DA" format="2">
  <advance width="1552"/>
  <unicode hex="109DA"/>
  <outline>
    <contour>
      <point x="1453" y="369" type="curve" smooth="yes"/>
      <point x="1404" y="221" type="line" smooth="yes"/>
      <point x="1363" y="97"/>
      <point x="1230" y="65"/>
      <point x="1125" y="65" type="curve" smooth="yes"/>
      <point x="1012" y="65"/>
      <point x="904" y="69"/>
      <point x="794" y="74" type="curve" smooth="yes"/>
      <point x="671" y="80"/>
      <point x="544" y="86"/>
      <point x="404" y="86" type="curve" smooth="yes"/>
      <point x="273" y="86"/>
      <point x="156" y="62"/>
      <point x="45" y="3" type="curve" smooth="yes"/>
      <point x="35" y="-2"/>
      <point x="30" y="-15"/>
      <point x="30" y="-27" type="curve" smooth="yes"/>
      <point x="30" y="-43"/>
      <point x="39" y="-58"/>
      <point x="56" y="-58" type="curve" smooth="yes"/>
      <point x="61" y="-58"/>
      <point x="66" y="-57"/>
      <point x="72" y="-54" type="curve" smooth="yes"/>
      <point x="187" y="-2"/>
      <point x="283" y="18"/>
      <point x="403" y="18" type="curve" smooth="yes"/>
      <point x="537" y="18"/>
      <point x="670" y="13"/>
      <point x="800" y="7" type="curve" smooth="yes"/>
      <point x="911" y="2"/>
      <point x="1020" y="-3"/>
      <point x="1128" y="-3" type="curve" smooth="yes"/>
      <point x="1274" y="-3"/>
      <point x="1421" y="50"/>
      <point x="1469" y="198" type="curve" smooth="yes"/>
      <point x="1517" y="346" type="line" smooth="yes"/>
      <point x="1520" y="356"/>
      <point x="1522" y="365"/>
      <point x="1522" y="374" type="curve" smooth="yes"/>
      <point x="1522" y="389"/>
      <point x="1515" y="401"/>
      <point x="1491" y="401" type="curve" smooth="yes"/>
      <point x="1473" y="401"/>
      <point x="1460" y="389"/>
    </contour>
    <contour>
      <point x="1036" y="141" type="curve" smooth="yes"/>
      <point x="1036" y="290" type="line"/>
      <point x="1094" y="290"/>
      <point x="1142" y="325"/>
      <point x="1142" y="379" type="curve" smooth="yes"/>
      <point x="1142" y="443"/>
      <point x="1094" y="476"/>
      <point x="1038" y="476" type="curve" smooth="yes"/>
      <point x="1020" y="476"/>
      <point x="1009" y="474"/>
      <point x="1002" y="470" type="curve" smooth="yes"/>
      <point x="991" y="464"/>
      <point x="988" y="458"/>
      <point x="988" y="448" type="curve" smooth="yes"/>
      <point x="988" y="433"/>
      <point x="997" y="419"/>
      <point x="1010" y="419" type="curve" smooth="yes"/>
      <point x="1018" y="419"/>
      <point x="1022" y="420"/>
      <point x="1027" y="420" type="curve" smooth="yes"/>
      <point x="1070" y="420"/>
      <point x="1082" y="401"/>
      <point x="1082" y="379" type="curve" smooth="yes"/>
      <point x="1082" y="351"/>
      <point x="1060" y="335"/>
      <point x="1021" y="335" type="curve" smooth="yes"/>
      <point x="1013" y="335"/>
      <point x="1002" y="338"/>
      <point x="995" y="338" type="curve" smooth="yes"/>
      <point x="978" y="338"/>
      <point x="977" y="321"/>
      <point x="977" y="302" type="curve" smooth="yes"/>
      <point x="977" y="141" type="line" smooth="yes"/>
      <point x="977" y="119"/>
      <point x="992" y="108"/>
      <point x="1006" y="108" type="curve" smooth="yes"/>
      <point x="1021" y="108"/>
      <point x="1036" y="119"/>
    </contour>
  </outline>
</glyph>
<glyph name="u109DB" format="2">
  <advance width="1502"/>
  <unicode hex="109DB"/>
  <outline>
    <contour>
      <point x="1214" y="233" type="curve"/>
      <point x="1278" y="233" type="line" smooth="yes"/>
      <point x="1329" y="233"/>
      <point x="1400" y="222"/>
      <point x="1400" y="166" type="curve" smooth="yes"/>
      <point x="1400" y="73"/>
      <point x="1210" y="65"/>
      <point x="1145" y="65" type="curve" smooth="yes"/>
      <point x="1036" y="65"/>
      <point x="927" y="69"/>
      <point x="816" y="74" type="curve" smooth="yes"/>
      <point x="684" y="80"/>
      <point x="548" y="86"/>
      <point x="404" y="86" type="curve" smooth="yes"/>
      <point x="273" y="86"/>
      <point x="156" y="62"/>
      <point x="45" y="3" type="curve" smooth="yes"/>
      <point x="35" y="-2"/>
      <point x="30" y="-15"/>
      <point x="30" y="-27" type="curve" smooth="yes"/>
      <point x="30" y="-43"/>
      <point x="39" y="-58"/>
      <point x="56" y="-58" type="curve" smooth="yes"/>
      <point x="61" y="-58"/>
      <point x="66" y="-57"/>
      <point x="72" y="-54" type="curve" smooth="yes"/>
      <point x="187" y="-2"/>
      <point x="283" y="18"/>
      <point x="403" y="18" type="curve" smooth="yes"/>
      <point x="533" y="18"/>
      <point x="668" y="13"/>
      <point x="800" y="7" type="curve" smooth="yes"/>
      <point x="919" y="2"/>
      <point x="1037" y="-3"/>
      <point x="1148" y="-3" type="curve" smooth="yes"/>
      <point x="1162" y="-3" type="line"/>
      <point x="1099" y="-179" type="line" smooth="yes"/>
      <point x="1097" y="-185"/>
      <point x="1096" y="-191"/>
      <point x="1096" y="-196" type="curve" smooth="yes"/>
      <point x="1096" y="-217"/>
      <point x="1113" y="-230"/>
      <point x="1130" y="-230" type="curve" smooth="yes"/>
      <point x="1144" y="-230"/>
      <point x="1157" y="-222"/>
      <point x="1164" y="-203" type="curve" smooth="yes"/>
      <point x="1238" y="0" type="line"/>
      <point x="1368" y="9"/>
      <point x="1472" y="46"/>
      <point x="1472" y="173" type="curve" smooth="yes"/>
      <point x="1472" y="264"/>
      <point x="1387" y="299"/>
      <point x="1285" y="299" type="curve" smooth="yes"/>
      <point x="1253" y="299" type="line"/>
      <point x="1254" y="323"/>
      <point x="1277" y="334"/>
      <point x="1314" y="340" type="curve" smooth="yes"/>
      <point x="1386" y="351"/>
      <point x="1441" y="372"/>
      <point x="1441" y="448" type="curve" smooth="yes"/>
      <point x="1441" y="548"/>
      <point x="1341" y="550"/>
      <point x="1268" y="550" type="curve" smooth="yes"/>
      <point x="1153" y="550" type="line" smooth="yes"/>
      <point x="1128" y="550"/>
      <point x="1122" y="533"/>
      <point x="1122" y="517" type="curve" smooth="yes"/>
      <point x="1122" y="506"/>
      <point x="1122" y="484"/>
      <point x="1154" y="484" type="curve" smooth="yes"/>
      <point x="1270" y="484" type="line" smooth="yes"/>
      <point x="1332" y="484"/>
      <point x="1369" y="472"/>
      <point x="1369" y="445" type="curve" smooth="yes"/>
      <point x="1369" y="413"/>
      <point x="1331" y="404"/>
      <point x="1293" y="396" type="curve" smooth="yes"/>
      <point x="1234" y="384"/>
      <point x="1189" y="375"/>
      <point x="1189" y="307" type="curve" smooth="yes"/>
      <point x="1189" y="247"/>
      <point x="1199" y="233"/>
    </contour>
  </outline>
</glyph>
<glyph name="u109DF" format="2">
  <advance width="1502"/>
  <unicode hex="109DF"/>
  <outline>
    <contour>
      <point x="1385" y="-314" type="curve" smooth="yes"/>
      <point x="1385" y="-301"/>
      <point x="1374" y="-288"/>
      <point x="1354" y="-285" type="curve" smooth="yes"/>
      <point x="1077" y="-237" type="line"/>
      <point x="1101" y="-219"/>
      <point x="1118" y="-192"/>
      <point x="1118" y="-151" type="curve" smooth="yes"/>
      <point x="1118" y="-87"/>
      <point x="1064" y="-51"/>
      <point x="1009" y="-51" type="curve" smooth="yes"/>
      <point x="966" y="-51"/>
      <point x="925" y="-72"/>
      <point x="910" y="-96" type="curve" smooth="yes"/>
      <point x="906" y="-102"/>
      <point x="903" y="-109"/>
      <point x="903" y="-114" type="curve" smooth="yes"/>
      <point x="903" y="-128"/>
      <point x="916" y="-140"/>
      <point x="932" y="-140" type="curve" smooth="yes"/>
      <point x="938" y="-140"/>
      <point x="945" y="-139"/>
      <point x="951" y="-134" type="curve" smooth="yes"/>
      <point x="961" y="-126"/>
      <point x="974" y="-109"/>
      <point x="1006" y="-109" type="curve" smooth="yes"/>
      <point x="1041" y="-109"/>
      <point x="1058" y="-135"/>
      <point x="1058" y="-157" type="curve" smooth="yes"/>
      <point x="1058" y="-203"/>
      <point x="1002" y="-215"/>
      <point x="974" y="-219" type="curve" smooth="yes"/>
      <point x="960" y="-221"/>
      <point x="950" y="-236"/>
      <point x="950" y="-251" type="curve" smooth="yes"/>
      <point x="950" y="-262"/>
      <point x="957" y="-273"/>
      <point x="971" y="-275" type="curve" smooth="yes"/>
      <point x="1343" y="-338" type="line" smooth="yes"/>
      <point x="1349" y="-339"/>
      <point x="1352" y="-339"/>
      <point x="1355" y="-339" type="curve" smooth="yes"/>
      <point x="1374" y="-339"/>
      <point x="1385" y="-327"/>
    </contour>
    <contour>
      <point x="1285" y="299" type="curve" smooth="yes"/>
      <point x="1253" y="299" type="line"/>
      <point x="1254" y="323"/>
      <point x="1277" y="334"/>
      <point x="1314" y="340" type="curve" smooth="yes"/>
      <point x="1386" y="351"/>
      <point x="1441" y="372"/>
      <point x="1441" y="448" type="curve" smooth="yes"/>
      <point x="1441" y="548"/>
      <point x="1341" y="550"/>
      <point x="1268" y="550" type="curve" smooth="yes"/>
      <point x="1153" y="550" type="line" smooth="yes"/>
      <point x="1128" y="550"/>
      <point x="1122" y="533"/>
      <point x="1122" y="517" type="curve" smooth="yes"/>
      <point x="1122" y="506"/>
      <point x="1122" y="484"/>
      <point x="1154" y="484" type="curve" smooth="yes"/>
      <point x="1270" y="484" type="line" smooth="yes"/>
      <point x="1332" y="484"/>
      <point x="1369" y="472"/>
      <point x="1369" y="445" type="curve" smooth="yes"/>
      <point x="1369" y="413"/>
      <point x="1331" y="404"/>
      <point x="1293" y="396" type="curve" smooth="yes"/>
      <point x="1234" y="384"/>
      <point x="1189" y="375"/>
      <point x="1189" y="307" type="curve" smooth="yes"/>
      <point x="1189" y="247"/>
      <point x="1199" y="233"/>
      <point x="1214" y="233" type="curve" smooth="yes"/>
      <point x="1278" y="233" type="line" smooth="yes"/>
      <point x="1329" y="233"/>
      <point x="1400" y="222"/>
      <point x="1400" y="166" type="curve" smooth="yes"/>
      <point x="1400" y="73"/>
      <point x="1210" y="65"/>
      <point x="1145" y="65" type="curve" smooth="yes"/>
      <point x="1037" y="65"/>
      <point x="929" y="69"/>
      <point x="819" y="74" type="curve" smooth="yes"/>
      <point x="686" y="80"/>
      <point x="549" y="86"/>
      <point x="404" y="86" type="curve" smooth="yes"/>
      <point x="273" y="86"/>
      <point x="156" y="62"/>
      <point x="45" y="3" type="curve" smooth="yes"/>
      <point x="35" y="-2"/>
      <point x="30" y="-15"/>
      <point x="30" y="-27" type="curve" smooth="yes"/>
      <point x="30" y="-43"/>
      <point x="39" y="-58"/>
      <point x="56" y="-58" type="curve" smooth="yes"/>
      <point x="61" y="-58"/>
      <point x="66" y="-57"/>
      <point x="72" y="-54" type="curve" smooth="yes"/>
      <point x="187" y="-2"/>
      <point x="283" y="18"/>
      <point x="403" y="18" type="curve" smooth="yes"/>
      <point x="538" y="18"/>
      <point x="677" y="12"/>
      <point x="813" y="6" type="curve" smooth="yes"/>
      <point x="928" y="1"/>
      <point x="1041" y="-3"/>
      <point x="1148" y="-3" type="curve" smooth="yes"/>
      <point x="1317" y="-3"/>
      <point x="1472" y="18"/>
      <point x="1472" y="173" type="curve" smooth="yes"/>
      <point x="1472" y="264"/>
      <point x="1387" y="299"/>
    </contour>
  </outline>
</glyph>
<glyph name="u109E1" format="2">
  <advance width="1502"/>
  <unicode hex="109E1"/>
  <outline>
    <contour>
      <point x="1425" y="-374" type="curve" smooth="yes"/>
      <point x="1425" y="-361"/>
      <point x="1414" y="-348"/>
      <point x="1394" y="-345" type="curve" smooth="yes"/>
      <point x="1117" y="-297" type="line"/>
      <point x="1141" y="-279"/>
      <point x="1158" y="-252"/>
      <point x="1158" y="-211" type="curve" smooth="yes"/>
      <point x="1158" y="-150"/>
      <point x="1109" y="-115"/>
      <point x="1055" y="-111" type="curve"/>
      <point x="1064" y="-91"/>
      <point x="1076" y="-77"/>
      <point x="1076" y="-62" type="curve" smooth="yes"/>
      <point x="1076" y="-45"/>
      <point x="1062" y="-34"/>
      <point x="1048" y="-34" type="curve" smooth="yes"/>
      <point x="1039" y="-34"/>
      <point x="1031" y="-38"/>
      <point x="1027" y="-46" type="curve" smooth="yes"/>
      <point x="971" y="-154"/>
      <point x="909" y="-231"/>
      <point x="811" y="-298" type="curve" smooth="yes"/>
      <point x="805" y="-302"/>
      <point x="799" y="-311"/>
      <point x="799" y="-317" type="curve" smooth="yes"/>
      <point x="799" y="-331"/>
      <point x="811" y="-343"/>
      <point x="826" y="-343" type="curve" smooth="yes"/>
      <point x="832" y="-343"/>
      <point x="839" y="-340"/>
      <point x="845" y="-336" type="curve" smooth="yes"/>
      <point x="913" y="-293"/>
      <point x="972" y="-236"/>
      <point x="1019" y="-170" type="curve"/>
      <point x="1023" y="-169"/>
      <point x="1028" y="-169"/>
      <point x="1033" y="-169" type="curve" smooth="yes"/>
      <point x="1081" y="-169"/>
      <point x="1098" y="-195"/>
      <point x="1098" y="-217" type="curve" smooth="yes"/>
      <point x="1098" y="-263"/>
      <point x="1042" y="-274"/>
      <point x="1014" y="-279" type="curve" smooth="yes"/>
      <point x="1000" y="-282"/>
      <point x="990" y="-296"/>
      <point x="990" y="-311" type="curve" smooth="yes"/>
      <point x="990" y="-322"/>
      <point x="997" y="-333"/>
      <point x="1011" y="-335" type="curve" smooth="yes"/>
      <point x="1385" y="-397" type="line" smooth="yes"/>
      <point x="1390" y="-398"/>
      <point x="1397" y="-399"/>
      <point x="1399" y="-399" type="curve" smooth="yes"/>
      <point x="1418" y="-399"/>
      <point x="1425" y="-387"/>
    </contour>
    <contour>
      <point x="1285" y="299" type="curve" smooth="yes"/>
      <point x="1253" y="299" type="line"/>
      <point x="1254" y="323"/>
      <point x="1277" y="334"/>
      <point x="1314" y="340" type="curve" smooth="yes"/>
      <point x="1386" y="351"/>
      <point x="1441" y="372"/>
      <point x="1441" y="448" type="curve" smooth="yes"/>
      <point x="1441" y="548"/>
      <point x="1341" y="550"/>
      <point x="1268" y="550" type="curve" smooth="yes"/>
      <point x="1153" y="550" type="line" smooth="yes"/>
      <point x="1128" y="550"/>
      <point x="1122" y="533"/>
      <point x="1122" y="517" type="curve" smooth="yes"/>
      <point x="1122" y="506"/>
      <point x="1122" y="484"/>
      <point x="1154" y="484" type="curve" smooth="yes"/>
      <point x="1270" y="484" type="line" smooth="yes"/>
      <point x="1332" y="484"/>
      <point x="1369" y="472"/>
      <point x="1369" y="445" type="curve" smooth="yes"/>
      <point x="1369" y="413"/>
      <point x="1331" y="404"/>
      <point x="1293" y="396" type="curve" smooth="yes"/>
      <point x="1234" y="384"/>
      <point x="1189" y="375"/>
      <point x="1189" y="307" type="curve" smooth="yes"/>
      <point x="1189" y="247"/>
      <point x="1199" y="233"/>
      <point x="1214" y="233" type="curve" smooth="yes"/>
      <point x="1278" y="233" type="line" smooth="yes"/>
      <point x="1329" y="233"/>
      <point x="1400" y="222"/>
      <point x="1400" y="166" type="curve" smooth="yes"/>
      <point x="1400" y="73"/>
      <point x="1210" y="65"/>
      <point x="1145" y="65" type="curve" smooth="yes"/>
      <point x="1034" y="65"/>
      <point x="923" y="69"/>
      <point x="809" y="74" type="curve" smooth="yes"/>
      <point x="679" y="80"/>
      <point x="545" y="86"/>
      <point x="404" y="86" type="curve" smooth="yes"/>
      <point x="273" y="86"/>
      <point x="156" y="62"/>
      <point x="45" y="3" type="curve" smooth="yes"/>
      <point x="35" y="-2"/>
      <point x="30" y="-15"/>
      <point x="30" y="-27" type="curve" smooth="yes"/>
      <point x="30" y="-43"/>
      <point x="39" y="-58"/>
      <point x="56" y="-58" type="curve" smooth="yes"/>
      <point x="61" y="-58"/>
      <point x="66" y="-57"/>
      <point x="72" y="-54" type="curve" smooth="yes"/>
      <point x="187" y="-2"/>
      <point x="283" y="18"/>
      <point x="403" y="18" type="curve" smooth="yes"/>
      <point x="532" y="18"/>
      <point x="665" y="12"/>
      <point x="796" y="7" type="curve" smooth="yes"/>
      <point x="917" y="2"/>
      <point x="1036" y="-3"/>
      <point x="1148" y="-3" type="curve" smooth="yes"/>
      <point x="1317" y="-3"/>
      <point x="1472" y="18"/>
      <point x="1472" y="173" type="curve" smooth="yes"/>
      <point x="1472" y="264"/>
      <point x="1387" y="299"/>
    </contour>
  </outline>
</glyph>
<glyph name="u109E2" format="2">
  <advance width="1749"/>
  <unicode hex="109E2"/>
  <outline>
    <contour>
      <point x="1676" y="136" type="curve" smooth="yes"/>
      <point x="1661" y="136"/>
      <point x="1651" y="130"/>
      <point x="1651" y="120" type="curve" smooth="yes"/>
      <point x="1651" y="108"/>
      <point x="1658" y="82"/>
      <point x="1658" y="64" type="curve" smooth="yes"/>
      <point x="1658" y="23"/>
      <point x="1642" y="-5"/>
      <point x="1616" y="-32" type="curve" smooth="yes"/>
      <point x="1471" y="-178" type="line" smooth="yes"/>
      <point x="1464" y="-185"/>
      <point x="1460" y="-194"/>
      <point x="1460" y="-201" type="curve" smooth="yes"/>
      <point x="1460" y="-217"/>
      <point x="1474" y="-228"/>
      <point x="1490" y="-228" type="curve" smooth="yes"/>
      <point x="1497" y="-228"/>
      <point x="1508" y="-225"/>
      <point x="1521" y="-211" type="curve" smooth="yes"/>
      <point x="1680" y="-44" type="line" smooth="yes"/>
      <point x="1708" y="-15"/>
      <point x="1719" y="28"/>
      <point x="1719" y="67" type="curve" smooth="yes"/>
      <point x="1719" y="88"/>
      <point x="1715" y="104"/>
      <point x="1708" y="121" type="curve" smooth="yes"/>
      <point x="1704" y="131"/>
      <point x="1689" y="136"/>
    </contour>
    <contour>
      <point x="1572" y="136" type="curve" smooth="yes"/>
      <point x="1551" y="136"/>
      <point x="1540" y="130"/>
      <point x="1540" y="116" type="curve" smooth="yes"/>
      <point x="1540" y="108" type="line" smooth="yes"/>
      <point x="1540" y="67"/>
      <point x="1525" y="39"/>
      <point x="1498" y="12" type="curve" smooth="yes"/>
      <point x="1373" y="-116" type="line" smooth="yes"/>
      <point x="1366" y="-123"/>
      <point x="1362" y="-132"/>
      <point x="1362" y="-139" type="curve" smooth="yes"/>
      <point x="1362" y="-154"/>
      <point x="1376" y="-166"/>
      <point x="1392" y="-166" type="curve" smooth="yes"/>
      <point x="1399" y="-166"/>
      <point x="1409" y="-163"/>
      <point x="1423" y="-149" type="curve" smooth="yes"/>
      <point x="1562" y="-1" type="line" smooth="yes"/>
      <point x="1588" y="27"/>
      <point x="1601" y="66"/>
      <point x="1601" y="116" type="curve" smooth="yes"/>
      <point x="1601" y="131"/>
      <point x="1585" y="136"/>
    </contour>
    <contour>
      <point x="1285" y="299" type="curve" smooth="yes"/>
      <point x="1253" y="299" type="line"/>
      <point x="1254" y="323"/>
      <point x="1277" y="334"/>
      <point x="1314" y="340" type="curve" smooth="yes"/>
      <point x="1386" y="351"/>
      <point x="1441" y="372"/>
      <point x="1441" y="448" type="curve" smooth="yes"/>
      <point x="1441" y="548"/>
      <point x="1341" y="550"/>
      <point x="1268" y="550" type="curve" smooth="yes"/>
      <point x="1153" y="550" type="line" smooth="yes"/>
      <point x="1128" y="550"/>
      <point x="1122" y="533"/>
      <point x="1122" y="517" type="curve" smooth="yes"/>
      <point x="1122" y="506"/>
      <point x="1122" y="484"/>
      <point x="1154" y="484" type="curve" smooth="yes"/>
      <point x="1270" y="484" type="line" smooth="yes"/>
      <point x="1332" y="484"/>
      <point x="1369" y="472"/>
      <point x="1369" y="445" type="curve" smooth="yes"/>
      <point x="1369" y="413"/>
      <point x="1331" y="404"/>
      <point x="1293" y="396" type="curve" smooth="yes"/>
      <point x="1234" y="384"/>
      <point x="1189" y="375"/>
      <point x="1189" y="307" type="curve" smooth="yes"/>
      <point x="1189" y="247"/>
      <point x="1199" y="233"/>
      <point x="1214" y="233" type="curve" smooth="yes"/>
      <point x="1278" y="233" type="line" smooth="yes"/>
      <point x="1329" y="233"/>
      <point x="1400" y="222"/>
      <point x="1400" y="166" type="curve" smooth="yes"/>
      <point x="1400" y="73"/>
      <point x="1210" y="65"/>
      <point x="1145" y="65" type="curve" smooth="yes"/>
      <point x="1048" y="65"/>
      <point x="951" y="69"/>
      <point x="852" y="73" type="curve" smooth="yes"/>
      <point x="708" y="79"/>
      <point x="561" y="86"/>
      <point x="404" y="86" type="curve" smooth="yes"/>
      <point x="273" y="86"/>
      <point x="156" y="62"/>
      <point x="45" y="3" type="curve" smooth="yes"/>
      <point x="35" y="-2"/>
      <point x="30" y="-15"/>
      <point x="30" y="-27" type="curve" smooth="yes"/>
      <point x="30" y="-43"/>
      <point x="39" y="-58"/>
      <point x="56" y="-58" type="curve" smooth="yes"/>
      <point x="61" y="-58"/>
      <point x="66" y="-57"/>
      <point x="72" y="-54" type="curve" smooth="yes"/>
      <point x="187" y="-2"/>
      <point x="283" y="18"/>
      <point x="403" y="18" type="curve" smooth="yes"/>
      <point x="546" y="18"/>
      <point x="694" y="11"/>
      <point x="839" y="5" type="curve" smooth="yes"/>
      <point x="945" y="1"/>
      <point x="1049" y="-3"/>
      <point x="1148" y="-3" type="curve" smooth="yes"/>
      <point x="1317" y="-3"/>
      <point x="1472" y="18"/>
      <point x="1472" y="173" type="curve" smooth="yes"/>
      <point x="1472" y="264"/>
      <point x="1387" y="299"/>
    </contour>
  </outline>
</glyph>
<glyph name="u109E3" format="2">
  <advance width="1699"/>
  <unicode hex="109E3"/>
  <outline>
    <contour>
      <point x="1563" y="-197" type="curve" smooth="yes"/>
      <point x="1563" y="-48" type="line"/>
      <point x="1621" y="-48"/>
      <point x="1669" y="-13"/>
      <point x="1669" y="41" type="curve" smooth="yes"/>
      <point x="1669" y="105"/>
      <point x="1621" y="138"/>
      <point x="1565" y="138" type="curve" smooth="yes"/>
      <point x="1547" y="138"/>
      <point x="1536" y="136"/>
      <point x="1529" y="132" type="curve" smooth="yes"/>
      <point x="1518" y="126"/>
      <point x="1515" y="120"/>
      <point x="1515" y="110" type="curve" smooth="yes"/>
      <point x="1515" y="95"/>
      <point x="1524" y="81"/>
      <point x="1537" y="81" type="curve" smooth="yes"/>
      <point x="1545" y="81"/>
      <point x="1549" y="82"/>
      <point x="1554" y="82" type="curve" smooth="yes"/>
      <point x="1597" y="82"/>
      <point x="1609" y="63"/>
      <point x="1609" y="41" type="curve" smooth="yes"/>
      <point x="1609" y="13"/>
      <point x="1587" y="-3"/>
      <point x="1548" y="-3" type="curve" smooth="yes"/>
      <point x="1540" y="-3"/>
      <point x="1529" y="0"/>
      <point x="1522" y="0" type="curve" smooth="yes"/>
      <point x="1505" y="0"/>
      <point x="1504" y="-17"/>
      <point x="1504" y="-36" type="curve" smooth="yes"/>
      <point x="1504" y="-197" type="line" smooth="yes"/>
      <point x="1504" y="-219"/>
      <point x="1519" y="-230"/>
      <point x="1533" y="-230" type="curve" smooth="yes"/>
      <point x="1548" y="-230"/>
      <point x="1563" y="-219"/>
    </contour>
    <contour>
      <point x="1285" y="299" type="curve" smooth="yes"/>
      <point x="1253" y="299" type="line"/>
      <point x="1254" y="323"/>
      <point x="1277" y="334"/>
      <point x="1314" y="340" type="curve" smooth="yes"/>
      <point x="1386" y="351"/>
      <point x="1441" y="372"/>
      <point x="1441" y="448" type="curve" smooth="yes"/>
      <point x="1441" y="548"/>
      <point x="1341" y="550"/>
      <point x="1268" y="550" type="curve" smooth="yes"/>
      <point x="1153" y="550" type="line" smooth="yes"/>
      <point x="1128" y="550"/>
      <point x="1122" y="533"/>
      <point x="1122" y="517" type="curve" smooth="yes"/>
      <point x="1122" y="506"/>
      <point x="1122" y="484"/>
      <point x="1154" y="484" type="curve" smooth="yes"/>
      <point x="1270" y="484" type="line" smooth="yes"/>
      <point x="1332" y="484"/>
      <point x="1369" y="472"/>
      <point x="1369" y="445" type="curve" smooth="yes"/>
      <point x="1369" y="413"/>
      <point x="1331" y="404"/>
      <point x="1293" y="396" type="curve" smooth="yes"/>
      <point x="1234" y="384"/>
      <point x="1189" y="375"/>
      <point x="1189" y="307" type="curve" smooth="yes"/>
      <point x="1189" y="247"/>
      <point x="1199" y="233"/>
      <point x="1214" y="233" type="curve" smooth="yes"/>
      <point x="1278" y="233" type="line" smooth="yes"/>
      <point x="1329" y="233"/>
      <point x="1400" y="222"/>
      <point x="1400" y="166" type="curve" smooth="yes"/>
      <point x="1400" y="73"/>
      <point x="1210" y="65"/>
      <point x="1145" y="65" type="curve" smooth="yes"/>
      <point x="1033" y="65"/>
      <point x="921" y="70"/>
      <point x="806" y="75" type="curve" smooth="yes"/>
      <point x="677" y="81"/>
      <point x="544" y="86"/>
      <point x="404" y="86" type="curve" smooth="yes"/>
      <point x="273" y="86"/>
      <point x="156" y="62"/>
      <point x="45" y="3" type="curve" smooth="yes"/>
      <point x="35" y="-2"/>
      <point x="30" y="-15"/>
      <point x="30" y="-27" type="curve" smooth="yes"/>
      <point x="30" y="-43"/>
      <point x="39" y="-58"/>
      <point x="56" y="-58" type="curve" smooth="yes"/>
      <point x="61" y="-58"/>
      <point x="66" y="-57"/>
      <point x="72" y="-54" type="curve" smooth="yes"/>
      <point x="187" y="-2"/>
      <point x="283" y="18"/>
      <point x="403" y="18" type="curve" smooth="yes"/>
      <point x="530" y="18"/>
      <point x="660" y="12"/>
      <point x="788" y="7" type="curve" smooth="yes"/>
      <point x="911" y="2"/>
      <point x="1033" y="-3"/>
      <point x="1148" y="-3" type="curve" smooth="yes"/>
      <point x="1317" y="-3"/>
      <point x="1472" y="18"/>
      <point x="1472" y="173" type="curve" smooth="yes"/>
      <point x="1472" y="264"/>
      <point x="1387" y="299"/>
    </contour>
  </outline>
</glyph>
<glyph name="u109E6" format="2">
  <advance width="1289"/>
  <unicode hex="109E6"/>
  <outline>
    <contour>
      <point x="435" y="-191" type="curve"/>
      <point x="435" y="0" type="line"/>
      <point x="535" y="0" type="line"/>
      <point x="535" y="-191" type="line" smooth="yes"/>
      <point x="535" y="-217"/>
      <point x="553" y="-230"/>
      <point x="570" y="-230" type="curve" smooth="yes"/>
      <point x="588" y="-230"/>
      <point x="605" y="-217"/>
      <point x="605" y="-191" type="curve" smooth="yes"/>
      <point x="605" y="0" type="line"/>
      <point x="705" y="0" type="line"/>
      <point x="705" y="-191" type="line" smooth="yes"/>
      <point x="705" y="-217"/>
      <point x="723" y="-230"/>
      <point x="740" y="-230" type="curve" smooth="yes"/>
      <point x="758" y="-230"/>
      <point x="775" y="-217"/>
      <point x="775" y="-191" type="curve" smooth="yes"/>
      <point x="775" y="0" type="line"/>
      <point x="1222" y="0" type="line" smooth="yes"/>
      <point x="1250" y="0"/>
      <point x="1259" y="28"/>
      <point x="1259" y="36" type="curve" smooth="yes"/>
      <point x="1259" y="66"/>
      <point x="1233" y="68"/>
      <point x="1215" y="68" type="curve" smooth="yes"/>
      <point x="147" y="68" type="line"/>
      <point x="147" y="222" type="line"/>
      <point x="250" y="277" type="line" smooth="yes"/>
      <point x="282" y="294"/>
      <point x="352" y="334"/>
      <point x="352" y="422" type="curve" smooth="yes"/>
      <point x="352" y="490"/>
      <point x="302" y="560"/>
      <point x="183" y="560" type="curve" smooth="yes"/>
      <point x="130" y="560"/>
      <point x="68" y="543"/>
      <point x="41" y="526" type="curve" smooth="yes"/>
      <point x="33" y="521"/>
      <point x="30" y="514"/>
      <point x="30" y="505" type="curve" smooth="yes"/>
      <point x="30" y="487"/>
      <point x="45" y="465"/>
      <point x="61" y="465" type="curve" smooth="yes"/>
      <point x="64" y="465"/>
      <point x="67" y="466"/>
      <point x="70" y="468" type="curve" smooth="yes"/>
      <point x="96" y="483"/>
      <point x="140" y="492"/>
      <point x="177" y="492" type="curve" smooth="yes"/>
      <point x="239" y="492"/>
      <point x="280" y="465"/>
      <point x="280" y="414" type="curve" smooth="yes"/>
      <point x="280" y="370"/>
      <point x="245" y="346"/>
      <point x="190" y="315" type="curve" smooth="yes"/>
      <point x="112" y="271" type="line" smooth="yes"/>
      <point x="88" y="257"/>
      <point x="77" y="238"/>
      <point x="77" y="213" type="curve" smooth="yes"/>
      <point x="77" y="61" type="line" smooth="yes"/>
      <point x="77" y="15"/>
      <point x="93" y="0"/>
      <point x="136" y="0" type="curve" smooth="yes"/>
      <point x="365" y="0" type="line"/>
      <point x="365" y="-191" type="line" smooth="yes"/>
      <point x="365" y="-217"/>
      <point x="383" y="-230"/>
      <point x="400" y="-230" type="curve" smooth="yes"/>
      <point x="418" y="-230"/>
      <point x="435" y="-217"/>
    </contour>
  </outline>
</glyph>
<glyph name="u109E9" format="2">
  <advance width="1289"/>
  <unicode hex="109E9"/>
  <outline>
    <contour>
      <point x="136" y="0" type="curve" smooth="yes"/>
      <point x="1222" y="0" type="line" smooth="yes"/>
      <point x="1250" y="0"/>
      <point x="1259" y="28"/>
      <point x="1259" y="36" type="curve" smooth="yes"/>
      <point x="1259" y="66"/>
      <point x="1233" y="68"/>
      <point x="1215" y="68" type="curve" smooth="yes"/>
      <point x="147" y="68" type="line"/>
      <point x="147" y="222" type="line"/>
      <point x="250" y="277" type="line" smooth="yes"/>
      <point x="282" y="294"/>
      <point x="352" y="334"/>
      <point x="352" y="422" type="curve" smooth="yes"/>
      <point x="352" y="490"/>
      <point x="302" y="560"/>
      <point x="183" y="560" type="curve" smooth="yes"/>
      <point x="130" y="560"/>
      <point x="68" y="543"/>
      <point x="41" y="526" type="curve" smooth="yes"/>
      <point x="33" y="521"/>
      <point x="30" y="514"/>
      <point x="30" y="505" type="curve" smooth="yes"/>
      <point x="30" y="487"/>
      <point x="45" y="465"/>
      <point x="61" y="465" type="curve" smooth="yes"/>
      <point x="64" y="465"/>
      <point x="67" y="466"/>
      <point x="70" y="468" type="curve" smooth="yes"/>
      <point x="96" y="483"/>
      <point x="140" y="492"/>
      <point x="177" y="492" type="curve" smooth="yes"/>
      <point x="239" y="492"/>
      <point x="280" y="465"/>
      <point x="280" y="414" type="curve" smooth="yes"/>
      <point x="280" y="370"/>
      <point x="245" y="346"/>
      <point x="190" y="315" type="curve" smooth="yes"/>
      <point x="112" y="271" type="line" smooth="yes"/>
      <point x="88" y="257"/>
      <point x="77" y="238"/>
      <point x="77" y="213" type="curve" smooth="yes"/>
      <point x="77" y="61" type="line" smooth="yes"/>
      <point x="77" y="15"/>
      <point x="93" y="0"/>
    </contour>
    <contour>
      <point x="462" y="-320" type="curve"/>
      <point x="595" y="-202" type="line" smooth="yes"/>
      <point x="601" y="-196"/>
      <point x="604" y="-190"/>
      <point x="604" y="-183" type="curve" smooth="yes"/>
      <point x="604" y="-167"/>
      <point x="590" y="-152"/>
      <point x="577" y="-152" type="curve" smooth="yes"/>
      <point x="568" y="-152"/>
      <point x="563" y="-158"/>
      <point x="558" y="-162" type="curve" smooth="yes"/>
      <point x="375" y="-325" type="line" smooth="yes"/>
      <point x="370" y="-330"/>
      <point x="363" y="-339"/>
      <point x="363" y="-353" type="curve" smooth="yes"/>
      <point x="363" y="-370"/>
      <point x="375" y="-387"/>
      <point x="396" y="-388" type="curve"/>
      <point x="459" y="-375"/>
      <point x="517" y="-369"/>
      <point x="573" y="-369" type="curve" smooth="yes"/>
      <point x="673" y="-369"/>
      <point x="785" y="-399"/>
      <point x="796" y="-399" type="curve" smooth="yes"/>
      <point x="811" y="-399"/>
      <point x="823" y="-386"/>
      <point x="823" y="-373" type="curve" smooth="yes"/>
      <point x="823" y="-360"/>
      <point x="816" y="-343"/>
      <point x="796" y="-337" type="curve" smooth="yes"/>
      <point x="744" y="-322"/>
      <point x="654" y="-311"/>
      <point x="580" y="-311" type="curve" smooth="yes"/>
      <point x="541" y="-311"/>
      <point x="502" y="-314"/>
    </contour>
    <contour>
      <point x="331" y="-294" type="curve" smooth="yes"/>
      <point x="517" y="-128" type="line" smooth="yes"/>
      <point x="523" y="-123"/>
      <point x="525" y="-116"/>
      <point x="525" y="-110" type="curve" smooth="yes"/>
      <point x="525" y="-93"/>
      <point x="511" y="-78"/>
      <point x="499" y="-78" type="curve" smooth="yes"/>
      <point x="488" y="-78"/>
      <point x="482" y="-87"/>
      <point x="479" y="-89" type="curve" smooth="yes"/>
      <point x="293" y="-254" type="line" smooth="yes"/>
      <point x="288" y="-259"/>
      <point x="285" y="-265"/>
      <point x="285" y="-272" type="curve" smooth="yes"/>
      <point x="285" y="-287"/>
      <point x="296" y="-302"/>
      <point x="311" y="-302" type="curve" smooth="yes"/>
      <point x="318" y="-302"/>
      <point x="325" y="-299"/>
    </contour>
    <contour>
      <point x="275" y="-209" type="curve" smooth="yes"/>
      <point x="283" y="-209"/>
      <point x="290" y="-205"/>
      <point x="296" y="-200" type="curve" smooth="yes"/>
      <point x="430" y="-82" type="line" smooth="yes"/>
      <point x="436" y="-76"/>
      <point x="439" y="-70"/>
      <point x="439" y="-63" type="curve" smooth="yes"/>
      <point x="439" y="-47"/>
      <point x="425" y="-33"/>
      <point x="413" y="-33" type="curve" smooth="yes"/>
      <point x="403" y="-33"/>
      <point x="396" y="-40"/>
      <point x="392" y="-43" type="curve" smooth="yes"/>
      <point x="257" y="-162" type="line" smooth="yes"/>
      <point x="252" y="-166"/>
      <point x="249" y="-172"/>
      <point x="249" y="-179" type="curve" smooth="yes"/>
      <point x="249" y="-193"/>
      <point x="260" y="-209"/>
    </contour>
  </outline>
</glyph>
<glyph name="u109EC" format="2">
  <advance width="1289"/>
  <unicode hex="109EC"/>
  <outline>
    <contour>
      <point x="136" y="0" type="curve" smooth="yes"/>
      <point x="1222" y="0" type="line" smooth="yes"/>
      <point x="1250" y="0"/>
      <point x="1259" y="28"/>
      <point x="1259" y="36" type="curve" smooth="yes"/>
      <point x="1259" y="66"/>
      <point x="1233" y="68"/>
      <point x="1215" y="68" type="curve" smooth="yes"/>
      <point x="147" y="68" type="line"/>
      <point x="147" y="222" type="line"/>
      <point x="250" y="277" type="line" smooth="yes"/>
      <point x="282" y="294"/>
      <point x="352" y="334"/>
      <point x="352" y="422" type="curve" smooth="yes"/>
      <point x="352" y="490"/>
      <point x="302" y="560"/>
      <point x="183" y="560" type="curve" smooth="yes"/>
      <point x="130" y="560"/>
      <point x="68" y="543"/>
      <point x="41" y="526" type="curve" smooth="yes"/>
      <point x="33" y="521"/>
      <point x="30" y="514"/>
      <point x="30" y="505" type="curve" smooth="yes"/>
      <point x="30" y="487"/>
      <point x="45" y="465"/>
      <point x="61" y="465" type="curve" smooth="yes"/>
      <point x="64" y="465"/>
      <point x="67" y="466"/>
      <point x="70" y="468" type="curve" smooth="yes"/>
      <point x="96" y="483"/>
      <point x="140" y="492"/>
      <point x="177" y="492" type="curve" smooth="yes"/>
      <point x="239" y="492"/>
      <point x="280" y="465"/>
      <point x="280" y="414" type="curve" smooth="yes"/>
      <point x="280" y="370"/>
      <point x="245" y="346"/>
      <point x="190" y="315" type="curve" smooth="yes"/>
      <point x="112" y="271" type="line" smooth="yes"/>
      <point x="88" y="257"/>
      <point x="77" y="238"/>
      <point x="77" y="213" type="curve" smooth="yes"/>
      <point x="77" y="61" type="line" smooth="yes"/>
      <point x="77" y="15"/>
      <point x="93" y="0"/>
    </contour>
    <contour>
      <point x="365" y="-379" type="curve" smooth="yes"/>
      <point x="365" y="-230" type="line"/>
      <point x="423" y="-230"/>
      <point x="471" y="-195"/>
      <point x="471" y="-141" type="curve" smooth="yes"/>
      <point x="471" y="-77"/>
      <point x="423" y="-44"/>
      <point x="367" y="-44" type="curve" smooth="yes"/>
      <point x="349" y="-44"/>
      <point x="338" y="-46"/>
      <point x="331" y="-50" type="curve" smooth="yes"/>
      <point x="320" y="-56"/>
      <point x="317" y="-62"/>
      <point x="317" y="-72" type="curve" smooth="yes"/>
      <point x="317" y="-87"/>
      <point x="326" y="-101"/>
      <point x="339" y="-101" type="curve" smooth="yes"/>
      <point x="347" y="-101"/>
      <point x="351" y="-100"/>
      <point x="356" y="-100" type="curve" smooth="yes"/>
      <point x="399" y="-100"/>
      <point x="411" y="-119"/>
      <point x="411" y="-141" type="curve" smooth="yes"/>
      <point x="411" y="-169"/>
      <point x="389" y="-185"/>
      <point x="350" y="-185" type="curve" smooth="yes"/>
      <point x="342" y="-185"/>
      <point x="331" y="-182"/>
      <point x="324" y="-182" type="curve" smooth="yes"/>
      <point x="307" y="-182"/>
      <point x="306" y="-199"/>
      <point x="306" y="-218" type="curve" smooth="yes"/>
      <point x="306" y="-379" type="line" smooth="yes"/>
      <point x="306" y="-401"/>
      <point x="321" y="-412"/>
      <point x="335" y="-412" type="curve" smooth="yes"/>
      <point x="350" y="-412"/>
      <point x="365" y="-401"/>
    </contour>
  </outline>
</glyph>
<glyph name="u109F1" format="2">
  <advance width="1427"/>
  <unicode hex="109F1"/>
  <outline>
    <contour>
      <point x="250" y="552" type="curve" smooth="yes"/>
      <point x="68" y="451" type="line" smooth="yes"/>
      <point x="53" y="443"/>
      <point x="30" y="422"/>
      <point x="30" y="400" type="curve" smooth="yes"/>
      <point x="30" y="387"/>
      <point x="37" y="376"/>
      <point x="59" y="361" type="curve" smooth="yes"/>
      <point x="197" y="264" type="line"/>
      <point x="58" y="140" type="line" smooth="yes"/>
      <point x="39" y="123"/>
      <point x="30" y="105"/>
      <point x="30" y="87" type="curve" smooth="yes"/>
      <point x="30" y="27"/>
      <point x="120" y="-3"/>
      <point x="319" y="-3" type="curve" smooth="yes"/>
      <point x="441" y="-3"/>
      <point x="559" y="3"/>
      <point x="680" y="8" type="curve" smooth="yes"/>
      <point x="791" y="13"/>
      <point x="905" y="18"/>
      <point x="1024" y="18" type="curve" smooth="yes"/>
      <point x="1144" y="18"/>
      <point x="1240" y="-2"/>
      <point x="1355" y="-54" type="curve" smooth="yes"/>
      <point x="1361" y="-57"/>
      <point x="1366" y="-58"/>
      <point x="1371" y="-58" type="curve" smooth="yes"/>
      <point x="1388" y="-58"/>
      <point x="1397" y="-43"/>
      <point x="1397" y="-27" type="curve" smooth="yes"/>
      <point x="1397" y="-15"/>
      <point x="1392" y="-2"/>
      <point x="1382" y="3" type="curve" smooth="yes"/>
      <point x="1271" y="62"/>
      <point x="1154" y="86"/>
      <point x="1023" y="86" type="curve" smooth="yes"/>
      <point x="898" y="86"/>
      <point x="788" y="81"/>
      <point x="682" y="76" type="curve" smooth="yes"/>
      <point x="563" y="70"/>
      <point x="448" y="65"/>
      <point x="322" y="65" type="curve" smooth="yes"/>
      <point x="219" y="65"/>
      <point x="134" y="77"/>
      <point x="106" y="98" type="curve"/>
      <point x="249" y="220" type="line" smooth="yes"/>
      <point x="266" y="234"/>
      <point x="276" y="251"/>
      <point x="276" y="266" type="curve" smooth="yes"/>
      <point x="276" y="281"/>
      <point x="266" y="296"/>
      <point x="249" y="308" type="curve" smooth="yes"/>
      <point x="115" y="401" type="line"/>
      <point x="280" y="491" type="line" smooth="yes"/>
      <point x="298" y="501"/>
      <point x="301" y="515"/>
      <point x="301" y="526" type="curve" smooth="yes"/>
      <point x="301" y="544"/>
      <point x="284" y="556"/>
      <point x="267" y="556" type="curve" smooth="yes"/>
      <point x="261" y="556"/>
      <point x="255" y="555"/>
    </contour>
    <contour>
      <point x="300" y="-251" type="curve" smooth="yes"/>
      <point x="300" y="-262"/>
      <point x="307" y="-273"/>
      <point x="321" y="-275" type="curve" smooth="yes"/>
      <point x="692" y="-337" type="line" smooth="yes"/>
      <point x="695" y="-338"/>
      <point x="706" y="-339"/>
      <point x="709" y="-339" type="curve" smooth="yes"/>
      <point x="728" y="-339"/>
      <point x="735" y="-327"/>
      <point x="735" y="-314" type="curve" smooth="yes"/>
      <point x="735" y="-301"/>
      <point x="724" y="-288"/>
      <point x="704" y="-285" type="curve" smooth="yes"/>
      <point x="427" y="-237" type="line"/>
      <point x="451" y="-219"/>
      <point x="468" y="-192"/>
      <point x="468" y="-151" type="curve" smooth="yes"/>
      <point x="468" y="-87"/>
      <point x="414" y="-51"/>
      <point x="359" y="-51" type="curve" smooth="yes"/>
      <point x="310" y="-51"/>
      <point x="272" y="-76"/>
      <point x="259" y="-98" type="curve" smooth="yes"/>
      <point x="255" y="-104"/>
      <point x="253" y="-109"/>
      <point x="253" y="-114" type="curve" smooth="yes"/>
      <point x="253" y="-128"/>
      <point x="266" y="-140"/>
      <point x="282" y="-140" type="curve" smooth="yes"/>
      <point x="288" y="-140"/>
      <point x="295" y="-139"/>
      <point x="301" y="-134" type="curve" smooth="yes"/>
      <point x="311" y="-126"/>
      <point x="324" y="-109"/>
      <point x="356" y="-109" type="curve" smooth="yes"/>
      <point x="391" y="-109"/>
      <point x="408" y="-135"/>
      <point x="408" y="-157" type="curve" smooth="yes"/>
      <point x="408" y="-203"/>
      <point x="354" y="-214"/>
      <point x="325" y="-219" type="curve" smooth="yes"/>
      <point x="311" y="-221"/>
      <point x="300" y="-236"/>
    </contour>
  </outline>
</glyph>
<glyph name="u109F8" format="2">
  <advance width="870"/>
  <unicode hex="109F8"/>
  <outline>
    <contour>
      <point x="150" y="560" type="curve" smooth="yes"/>
      <point x="150" y="529"/>
      <point x="174" y="505"/>
      <point x="205" y="505" type="curve" smooth="yes"/>
      <point x="237" y="505"/>
      <point x="262" y="529"/>
      <point x="262" y="560" type="curve" smooth="yes"/>
      <point x="262" y="591"/>
      <point x="237" y="615"/>
      <point x="205" y="615" type="curve" smooth="yes"/>
      <point x="174" y="615"/>
      <point x="150" y="591"/>
    </contour>
    <contour>
      <point x="379" y="307" type="curve" smooth="yes"/>
      <point x="379" y="276"/>
      <point x="404" y="251"/>
      <point x="435" y="251" type="curve" smooth="yes"/>
      <point x="466" y="251"/>
      <point x="491" y="276"/>
      <point x="491" y="307" type="curve" smooth="yes"/>
      <point x="491" y="338"/>
      <point x="466" y="363"/>
      <point x="435" y="363" type="curve" smooth="yes"/>
      <point x="404" y="363"/>
      <point x="379" y="338"/>
    </contour>
    <contour>
      <point x="609" y="560" type="curve" smooth="yes"/>
      <point x="609" y="529"/>
      <point x="633" y="505"/>
      <point x="664" y="505" type="curve" smooth="yes"/>
      <point x="695" y="505"/>
      <point x="720" y="529"/>
      <point x="720" y="560" type="curve" smooth="yes"/>
      <point x="720" y="591"/>
      <point x="695" y="615"/>
      <point x="664" y="615" type="curve" smooth="yes"/>
      <point x="633" y="615"/>
      <point x="609" y="591"/>
    </contour>
  </outline>
</glyph>
<glyph name="u109FF" format="2">
  <advance width="1010"/>
  <unicode hex="109FF"/>
  <outline>
    <contour>
      <point x="150" y="560" type="curve" smooth="yes"/>
      <point x="150" y="529"/>
      <point x="174" y="505"/>
      <point x="205" y="505" type="curve" smooth="yes"/>
      <point x="237" y="505"/>
      <point x="262" y="529"/>
      <point x="262" y="560" type="curve" smooth="yes"/>
      <point x="262" y="591"/>
      <point x="237" y="615"/>
      <point x="205" y="615" type="curve" smooth="yes"/>
      <point x="174" y="615"/>
      <point x="150" y="591"/>
    </contour>
    <contour>
      <point x="449" y="560" type="curve" smooth="yes"/>
      <point x="449" y="529"/>
      <point x="474" y="505"/>
      <point x="505" y="505" type="curve" smooth="yes"/>
      <point x="536" y="505"/>
      <point x="561" y="529"/>
      <point x="561" y="560" type="curve" smooth="yes"/>
      <point x="561" y="591"/>
      <point x="536" y="615"/>
      <point x="505" y="615" type="curve" smooth="yes"/>
      <point x="474" y="615"/>
      <point x="449" y="591"/>
    </contour>
    <contour>
      <point x="150" y="307" type="curve" smooth="yes"/>
      <point x="150" y="276"/>
      <point x="174" y="251"/>
      <point x="205" y="251" type="curve" smooth="yes"/>
      <point x="237" y="251"/>
      <point x="262" y="276"/>
      <point x="262" y="307" type="curve" smooth="yes"/>
      <point x="262" y="338"/>
      <point x="237" y="363"/>
      <point x="205" y="363" type="curve" smooth="yes"/>
      <point x="174" y="363"/>
      <point x="150" y="338"/>
    </contour>
    <contour>
      <point x="449" y="307" type="curve" smooth="yes"/>
      <point x="449" y="276"/>
      <point x="474" y="251"/>
      <point x="505" y="251" type="curve" smooth="yes"/>
      <point x="536" y="251"/>
      <point x="561" y="276"/>
      <point x="561" y="307" type="curve" smooth="yes"/>
      <point x="561" y="338"/>
      <point x="536" y="363"/>
      <point x="505" y="363" type="curve" smooth="yes"/>
      <point x="474" y="363"/>
      <point x="449" y="338"/>
    </contour>
    <contour>
      <point x="150" y="55" type="curve" smooth="yes"/>
      <point x="150" y="24"/>
      <point x="174" y="-2"/>
      <point x="205" y="-2" type="curve" smooth="yes"/>
      <point x="237" y="-2"/>
      <point x="262" y="24"/>
      <point x="262" y="55" type="curve" smooth="yes"/>
      <point x="262" y="86"/>
      <point x="237" y="110"/>
      <point x="205" y="110" type="curve" smooth="yes"/>
      <point x="174" y="110"/>
      <point x="150" y="86"/>
    </contour>
    <contour>
      <point x="449" y="55" type="curve" smooth="yes"/>
      <point x="449" y="24"/>
      <point x="474" y="-2"/>
      <point x="505" y="-2" type="curve" smooth="yes"/>
      <point x="536" y="-2"/>
      <point x="561" y="24"/>
      <point x="561" y="55" type="curve" smooth="yes"/>
      <point x="561" y="86"/>
      <point x="536" y="110"/>
      <point x="505" y="110" type="curve" smooth="yes"/>
      <point x="474" y="110"/>
      <point x="449" y="86"/>
    </contour>
    <contour>
      <point x="749" y="560" type="curve" smooth="yes"/>
      <point x="749" y="529"/>
      <point x="773" y="505"/>
      <point x="804" y="505" type="curve" smooth="yes"/>
      <point x="835" y="505"/>
      <point x="860" y="529"/>
      <point x="860" y="560" type="curve" smooth="yes"/>
      <point x="860" y="591"/>
      <point x="835" y="615"/>
      <point x="804" y="615" type="curve" smooth="yes"/>
      <point x="773" y="615"/>
      <point x="749" y="591"/>
    </contour>
    <contour>
      <point x="749" y="307" type="curve" smooth="yes"/>
      <point x="749" y="276"/>
      <point x="773" y="251"/>
      <point x="804" y="251" type="curve" smooth="yes"/>
      <point x="835" y="251"/>
      <point x="860" y="276"/>
      <point x="860" y="307" type="curve" smooth="yes"/>
      <point x="860" y="338"/>
      <point x="835" y="363"/>
      <point x="804" y="363" type="curve" smooth="yes"/>
      <point x="773" y="363"/>
      <point x="749" y="338"/>
    </contour>
    <contour>
      <point x="449" y="812" type="curve" smooth="yes"/>
      <point x="449" y="781"/>
      <point x="474" y="757"/>
      <point x="505" y="757" type="curve" smooth="yes"/>
      <point x="536" y="757"/>
      <point x="561" y="781"/>
      <point x="561" y="812" type="curve" smooth="yes"/>
      <point x="561" y="843"/>
      <point x="536" y="867"/>
      <point x="505" y="867" type="curve" smooth="yes"/>
      <point x="474" y="867"/>
      <point x="449" y="843"/>
    </contour>
    <contour>
      <point x="749" y="55" type="curve" smooth="yes"/>
      <point x="749" y="24"/>
      <point x="773" y="-2"/>
      <point x="804" y="-2" type="curve" smooth="yes"/>
      <point x="835" y="-2"/>
      <point x="860" y="24"/>
      <point x="860" y="55" type="curve" smooth="yes"/>
      <point x="860" y="86"/>
      <point x="835" y="110"/>
      <point x="804" y="110" type="curve" smooth="yes"/>
      <point x="773" y="110"/>
      <point x="749" y="86"/>
    </contour>
  </outline>
</glyph>
<glyph name="u10981.rev" format="2">
  <advance width="463"/>
  <outline>
    <contour>
      <point x="333" y="-12" type="curve" smooth="yes"/>
      <point x="348" y="-12"/>
      <point x="363" y="-4"/>
      <point x="363" y="12" type="curve" smooth="yes"/>
      <point x="363" y="652" type="line" smooth="yes"/>
      <point x="363" y="774"/>
      <point x="309" y="830"/>
      <point x="226" y="830" type="curve" smooth="yes"/>
      <point x="139" y="830"/>
      <point x="101" y="767"/>
      <point x="101" y="714" type="curve" smooth="yes"/>
      <point x="101" y="679"/>
      <point x="111" y="657"/>
      <point x="123" y="637" type="curve" smooth="yes"/>
      <point x="135" y="617"/>
      <point x="148" y="599"/>
      <point x="148" y="575" type="curve" smooth="yes"/>
      <point x="148" y="550"/>
      <point x="132" y="511"/>
      <point x="117" y="476" type="curve" smooth="yes"/>
      <point x="79" y="388" type="line" smooth="yes"/>
      <point x="62" y="350"/>
      <point x="40" y="299"/>
      <point x="40" y="267" type="curve" smooth="yes"/>
      <point x="40" y="224"/>
      <point x="84" y="208"/>
      <point x="140" y="186" type="curve" smooth="yes"/>
      <point x="194" y="165"/>
      <point x="258" y="138"/>
      <point x="303" y="75" type="curve"/>
      <point x="303" y="12" type="line" smooth="yes"/>
      <point x="303" y="-4"/>
      <point x="318" y="-12"/>
    </contour>
    <contour>
      <point x="164" y="244" type="curve" smooth="yes"/>
      <point x="135" y="255"/>
      <point x="104" y="271"/>
      <point x="104" y="286" type="curve" smooth="yes"/>
      <point x="104" y="304"/>
      <point x="116" y="332"/>
      <point x="143" y="396" type="curve" smooth="yes"/>
      <point x="169" y="457" type="line" smooth="yes"/>
      <point x="193" y="512"/>
      <point x="208" y="545"/>
      <point x="208" y="575" type="curve" smooth="yes"/>
      <point x="208" y="603"/>
      <point x="193" y="627"/>
      <point x="181" y="647" type="curve" smooth="yes"/>
      <point x="170" y="665"/>
      <point x="161" y="681"/>
      <point x="161" y="704" type="curve" smooth="yes"/>
      <point x="161" y="743"/>
      <point x="180" y="770"/>
      <point x="226" y="770" type="curve" smooth="yes"/>
      <point x="277" y="770"/>
      <point x="303" y="735"/>
      <point x="303" y="641" type="curve" smooth="yes"/>
      <point x="303" y="153" type="line"/>
      <point x="265" y="195"/>
      <point x="216" y="224"/>
    </contour>
  </outline>
</glyph>
